<?xml version="1.0" standalone="no"?>
<!DOCTYPE svg PUBLIC "-//W3C//DTD SVG 1.1//EN" "http://www.w3.org/Graphics/SVG/1.1/DTD/svg11.dtd" >
<svg xmlns="http://www.w3.org/2000/svg" xmlns:xlink="http://www.w3.org/1999/xlink" version="1.1">
<metadata></metadata>
<defs>
<font id="barlow_condensedthin" horiz-adv-x="841" >
<font-face units-per-em="2048" ascent="1638" descent="-410" />
<missing-glyph horiz-adv-x="409" />
<glyph horiz-adv-x="0" />
<glyph unicode="&#xd;" horiz-adv-x="409" />
<glyph horiz-adv-x="0" />
<glyph horiz-adv-x="0" />
<glyph unicode=" "  horiz-adv-x="409" />
<glyph unicode="&#x09;" horiz-adv-x="409" />
<glyph unicode="&#xa0;" horiz-adv-x="409" />
<glyph unicode="!" horiz-adv-x="481" d="M154 96q0 39 24.5 63.5t63.5 24.5q37 0 61.5 -24.5t24.5 -63.5q0 -37 -24.5 -61.5t-61.5 -24.5q-39 0 -63.5 24.5t-24.5 61.5zM213 1413q0 20 20 21h21q20 0 20 -21l-4 -940q0 -20 -20 -20h-14q-21 0 -21 20z" />
<glyph unicode="&#x22;" horiz-adv-x="348" d="M55 1397q0 20 21 20h24q20 0 21 -20l-6 -357q0 -20 -21 -20h-10q-21 0 -21 20zM221 1397q0 20 21 20h26q20 0 21 -20l-8 -357q0 -20 -21 -20h-12q-21 0 -21 20z" />
<glyph unicode="#" horiz-adv-x="1173" d="M139 459v16q0 20 21 21h135q10 0 10 8l57 397q0 8 -6 8h-133q-20 0 -20 21v16q0 20 20 21h142q10 0 10 8l59 393q2 16 23 16h18q8 0 14.5 -6t4.5 -16l-56 -387q0 -8 6 -8h371q10 0 10 8l60 393q2 16 22 16h21q8 0 14 -6t4 -16l-57 -387q0 -8 6 -8h119q20 0 20 -21v-16 q0 -21 -20 -21h-127q-10 0 -10 -8l-58 -397q0 -8 6 -8h125q20 0 21 -21v-16q0 -20 -21 -21h-133q-10 0 -10 -8l-59 -391q-2 -16 -23 -16h-18q-8 0 -14.5 6t-4.5 16l55 385q0 8 -6 8h-372q-10 0 -11 -8l-57 -389q-2 -18 -23 -18h-18q-8 0 -14 6t-4 16l55 385q0 8 -6 8h-127 q-20 0 -21 21zM369 504q0 -8 6 -8h370q11 0 11 8l57 397q0 8 -6 8h-371q-10 0 -10 -8z" />
<glyph unicode="$" horiz-adv-x="819" d="M98 1124q0 150 80 236t207 90q8 0 8 8v162q0 20 21 20h12q20 0 20 -20v-166q0 -8 9 -10q115 -20 182.5 -113.5t67.5 -236.5v-52q0 -20 -21 -20h-20q-20 0 -21 20v50q0 137 -68.5 220t-179.5 83q-104 0 -169.5 -72t-65.5 -203q0 -76 26.5 -132t78.5 -104t153 -124 q121 -90 179 -144.5t89 -118t31 -155.5q0 -143 -69.5 -238.5t-182.5 -113.5q-8 -2 -8 -10v-158q0 -20 -21 -21h-12q-20 0 -21 21v153q0 8 -8 9q-131 4 -213 101t-82 253v39q0 20 21 20h18q20 0 21 -20v-37q0 -135 68.5 -218t177.5 -83t179 80t70 209q0 86 -32.5 146.5 t-80.5 103.5t-157 124q-104 80 -160.5 132.5t-91.5 123t-35 166.5z" />
<glyph unicode="%" horiz-adv-x="1617" d="M180 1182q0 74 36 136t97.5 99t135.5 37q72 0 133 -37t96 -99.5t35 -135.5q0 -74 -35 -137.5t-96.5 -100.5t-132.5 -37q-74 0 -135.5 37t-97.5 100.5t-36 137.5zM231 1182q0 -94 63.5 -159t154.5 -65q88 0 150.5 66t62.5 158t-62.5 156.5t-150.5 64.5q-90 0 -154 -64.5 t-64 -156.5zM404.5 7q-5.5 7 1.5 18l751 1394q6 14 25 15h12q12 0 17.5 -7.5t-1.5 -17.5l-751 -1395q-6 -14 -25 -14h-12q-12 0 -17.5 7zM905 254q0 74 36 136.5t97.5 99t135.5 36.5q72 0 133 -36.5t96 -99t35 -136.5t-35 -137.5t-96.5 -100t-132.5 -36.5q-74 0 -135.5 36.5 t-97.5 100t-36 137.5zM956 254q0 -94 63.5 -158.5t154.5 -64.5q88 0 150 65.5t62 157.5t-62 156.5t-150 64.5q-90 0 -154 -64.5t-64 -156.5z" />
<glyph unicode="&#x26;" horiz-adv-x="1038" d="M98 303q0 143 67.5 245.5t192.5 219.5q6 2 2 10q-78 119 -112.5 183.5t-46 106.5t-11.5 97q0 131 69 208t179 77q111 0 180.5 -76t69.5 -200q0 -123 -61.5 -213.5t-180.5 -200.5q-6 -6 -2 -12l150 -230l141 -215q2 -2 6 -2t7 2l71 117l33 57q8 18 29 6l14 -10 q14 -12 6 -27q-76 -133 -121 -198q-2 -6 0 -12l140 -211q4 -5 4 -13q0 -12 -17 -12h-20q-14 0 -25 14l-112 172q-2 4 -6.5 3t-6.5 -3q-80 -111 -154.5 -156.5t-172.5 -45.5q-143 0 -227.5 84t-84.5 235zM162 299q0 -121 65.5 -189.5t182.5 -68.5q88 0 154.5 44t142.5 155 q4 6 0 12l-109 164l-102 155l-93 138q-2 10 -10 2q-113 -106 -172 -198.5t-59 -213.5zM252 1165q0 -70 26.5 -134t120.5 -214q6 -8 13 -2q106 102 160.5 180t54.5 179q0 98 -51.5 158.5t-135.5 60.5t-136 -61.5t-52 -166.5z" />
<glyph unicode="'" horiz-adv-x="182" d="M55 1407q0 20 21 20h26q20 0 21 -20l-8 -352q0 -20 -21 -21h-10q-21 1 -21 21z" />
<glyph unicode="(" horiz-adv-x="346" d="M-10 657q0 254 44 499t116 398q6 14 22 15h16q10 0 15.5 -7.5t1.5 -15.5q-63 -158 -103.5 -399.5t-40.5 -484.5q0 -242 40 -477.5t104 -391.5q2 -2 2 -8t-5 -10t-14 -4h-22q-17 0 -23 14q-70 154 -111.5 390.5t-41.5 481.5z" />
<glyph unicode=")" horiz-adv-x="346" d="M139 1554q0 6 5.5 10.5t13.5 4.5h22q17 -1 23 -15q70 -154 111.5 -390t41.5 -482q0 -254 -44 -498.5t-115 -398.5q-6 -14 -23 -14h-16q-10 0 -15.5 7t-1.5 15q63 158 103.5 399.5t40.5 485.5q0 242 -40 477.5t-104 390.5q-2 2 -2 8z" />
<glyph unicode="*" horiz-adv-x="737" d="M61 999q0 12 11 17l235 145q4 2 4 6t-4 7l-235 145q-16 10 -6 29l4 8q12 20 28 8l234 -145q4 -2 7 0t3 6v284q0 20 20 21h13q20 0 20 -21v-284q0 -4 3 -6t8 0l233 145l10 4q10 0 19 -12l4 -8q4 -8 4 -13q0 -10 -10 -16l-236 -145q-2 -2 -2 -6.5t2 -6.5l236 -145 q16 -10 6 -29l-4 -8q-12 -20 -29 -8l-233 145q-4 2 -7.5 0t-3.5 -6v-285q0 -20 -20 -20h-13q-20 0 -20 20v285q0 4 -3 6t-7 0l-234 -145l-10 -4q-10 0 -18 12l-4 8q-4 8 -5 12z" />
<glyph unicode="+" horiz-adv-x="909" d="M76 655v13q0 20 20 20h324q8 0 8 8v324q0 20 21 20h12q20 0 20 -20v-324q0 -8 8 -8h324q21 0 21 -20v-13q0 -20 -21 -20h-324q-8 0 -8 -8v-324q0 -20 -20 -20h-12q-20 0 -21 20v324q0 8 -8 8h-324q-20 0 -20 20z" />
<glyph unicode="," horiz-adv-x="323" d="M88 -117l76 412q4 18 22 18h17q10 0 15 -6t3 -16l-82 -412q-2 -18 -22 -18h-11q-10 0 -15 6t-3 16z" />
<glyph unicode="-" horiz-adv-x="620" d="M76 647v17q0 20 20 20h428q20 0 21 -20v-17q0 -20 -21 -20h-428q-20 0 -20 20z" />
<glyph unicode="." horiz-adv-x="348" d="M86 98q0 37 24.5 62t63.5 25t63.5 -25t24.5 -62q0 -39 -24.5 -63.5t-63.5 -24.5t-63.5 25t-24.5 63z" />
<glyph unicode="/" horiz-adv-x="585" d="M61 23l322 1392q4 18 23 19h20q10 0 15 -6.5t1 -16.5l-321 -1393q-4 -18 -23 -18h-20q-10 0 -15.5 6t-1.5 17z" />
<glyph unicode="0" horiz-adv-x="899" d="M133 322v790q0 154 86 247t230 93q141 0 229 -93t88 -247v-790q0 -154 -88 -247t-229 -93q-144 0 -230 93t-86 247zM195 315q0 -125 69.5 -200.5t184.5 -75.5q114 0 185 75.5t71 200.5v803q0 125 -71 201t-185 76q-115 0 -184.5 -76t-69.5 -201v-803z" />
<glyph unicode="1" horiz-adv-x="489" d="M25 1280q0 14 12 20l231 127q11 7 27 7h27q20 0 20 -21v-1393q0 -20 -20 -20h-21q-20 0 -20 20v1323q0 4 -3.5 6.5t-7.5 0.5l-211 -103q-4 -2 -10 -2q-12 0 -16 12l-6 15q-2 2 -2 8z" />
<glyph unicode="2" horiz-adv-x="778" d="M96 1040v72q2 152 79 245t200 93q127 0 204.5 -94t77.5 -246q0 -190 -145 -451l-334 -591q-2 -5 -1 -8t5 -3h506q20 0 21 -20v-17q0 -20 -21 -20h-569q-20 0 -21 20v23q0 14 6 27l148 260l201 360q143 254 143 420q0 127 -61.5 205t-161.5 78q-96 0 -155.5 -78 t-57.5 -205v-70q0 -20 -21 -20h-22q-20 0 -21 20z" />
<glyph unicode="3" horiz-adv-x="802" d="M90 395q0 20 21 21h20q20 0 21 -21q2 -88 18 -155q43 -199 209 -199q154 0 207 176q23 90 22 207q0 152 -35 252q-53 152 -194 151q-16 0 -37 -4h-8q-10 0 -19 8l-8 9q-12 12 -4 28l283 498q2 4 0 7t-6 3h-465q-20 0 -21 21v16q0 20 21 21h530q20 0 21 -21v-22 q0 -14 -7 -27l-270 -479q-2 -4 -1 -7.5t5 -3.5q82 0 141.5 -44t92.5 -128q43 -106 43 -280q0 -125 -25 -215q-61 -223 -266 -223q-106 0 -174 60t-94 175q-16 72 -21 176z" />
<glyph unicode="4" horiz-adv-x="768" d="M55 430v21q0 8 4 24l326 942q6 16 25 17h24q23 0 17 -23l-324 -934q-2 -4 0 -7t6 -3h422q8 0 8 8v369q0 20 21 20h20q20 0 21 -20v-369q0 -8 8 -8h59q21 -1 21 -21v-16q0 -20 -21 -20h-59q-8 0 -8 -9v-381q0 -20 -21 -20h-20q-20 0 -21 20v381q0 8 -8 9h-479 q-20 0 -21 20z" />
<glyph unicode="5" horiz-adv-x="800" d="M135 645v768q0 20 21 21h489q20 0 21 -21v-16q0 -20 -21 -21h-440q-8 0 -8 -8l-2 -604q0 -6 4 -7t6 5q33 57 90 87t133 30q193 0 254 -209q29 -99 29 -238q0 -111 -19 -194q-53 -254 -272 -254q-113 0 -183.5 66.5t-93.5 197.5l-6 61v4q0 16 19 17h20q20 0 23 -21 q0 -10 2 -27.5t4 -29.5q43 -211 215 -211q162 0 209 197q20 80 20 194q0 123 -26 219q-53 170 -203 170q-176 0 -219 -178q-6 -18 -23 -18h-22q-20 0 -21 20z" />
<glyph unicode="6" horiz-adv-x="802" d="M135 432v676q0 156 79 249t210 93q115 0 190.5 -94t75.5 -248v-10q0 -20 -20 -21h-21q-20 0 -20 21v14q0 125 -58.5 203t-146.5 78q-102 0 -164.5 -78t-62.5 -203v-367q0 -6 3 -7t5 5q35 68 92 103t129 35q201 0 264 -232q23 -94 23 -217q0 -98 -15 -170 q-20 -137 -90.5 -207.5t-185.5 -70.5q-106 0 -175 65.5t-95 192.5q-16 88 -17 190zM197 432q0 -106 14 -178q47 -213 211 -213q178 0 217 229q12 72 12 162q0 121 -24 207q-45 184 -205 184t-207 -194q-18 -72 -18 -197z" />
<glyph unicode="7" horiz-adv-x="700" d="M59 1282v131q0 20 21 21h557q20 0 20 -21v-24q0 -4 -4 -25l-354 -1346q-4 -18 -23 -18h-24q-10 0 -15.5 6t-3.5 17l357 1345q2 2 -1 5t-7 3h-459q-8 0 -8 -8v-86q0 -20 -21 -20h-14q-20 0 -21 20z" />
<glyph unicode="8" horiz-adv-x="843" d="M133 393q0 141 39 234q39 94 117 137q10 6 0 10q-66 33 -107 103q-49 86 -49 221q0 137 47 219q35 66 96.5 99.5t143.5 33.5q164 0 237 -127q53 -82 54 -227q0 -133 -47 -213q-41 -72 -111 -109q-10 -4 0 -10q70 -37 109 -117q49 -100 49 -256q0 -109 -27 -198 q-33 -100 -100.5 -154.5t-163.5 -54.5q-92 0 -159.5 54t-100.5 152q-27 94 -27 203zM193 393q0 -109 26 -182q25 -82 77 -126t124 -44q76 0 129 46t78 132q22 78 22 172q0 131 -39 219q-55 131 -190 131q-68 0 -117 -35.5t-76 -105.5q-35 -82 -34 -207zM193 1094 q0 -111 43 -191q59 -104 184 -104q68 0 116 30.5t76 85.5q39 74 39 183q0 119 -47 194q-61 102 -184 103q-127 0 -187 -111q-41 -76 -40 -190z" />
<glyph unicode="9" horiz-adv-x="788" d="M76 1001q0 94 12 170q23 137 92.5 208t184.5 71q109 0 177 -65.5t93 -192.5q18 -82 18 -191v-675q0 -156 -79.5 -249t-211.5 -93q-115 0 -189.5 94t-74.5 248v10q0 20 21 20h20q20 0 21 -20v-14q0 -123 58 -202t144 -79q102 0 166 78t64 203v366q0 6 -3 7t-5 -5 q-35 -68 -92.5 -102.5t-129.5 -34.5q-100 0 -167.5 58.5t-96.5 172.5q-23 82 -22 217zM137 1001q0 -117 23 -206q47 -184 205 -185q159 0 206 195q20 80 21 196q0 96 -17 179q-43 213 -210 213q-174 0 -218 -230q-10 -78 -10 -162z" />
<glyph unicode=":" horiz-adv-x="354" d="M90 100q0 37 24.5 62t63.5 25t63.5 -25t24.5 -62q0 -39 -24.5 -63.5t-63.5 -24.5t-63.5 25t-24.5 63zM90 798q0 37 24.5 62t63.5 25t63.5 -25t24.5 -62q0 -39 -24.5 -63.5t-63.5 -24.5t-63.5 25t-24.5 63z" />
<glyph unicode=";" horiz-adv-x="348" d="M98 840q0 37 22.5 62.5t53.5 25.5t54.5 -25.5t23.5 -62.5t-23.5 -63.5t-54.5 -26.5q-33 0 -54.5 26.5t-21.5 63.5zM100 -104l47 389q2 18 21 18h20q8 0 14.5 -6t4.5 -16l-55 -390q-2 -18 -21 -18h-10q-10 0 -16.5 7t-4.5 16z" />
<glyph unicode="&#x3c;" horiz-adv-x="909" d="M76 535v30q0 18 14 25l719 368q4 2 10 3q14 0 15 -17v-22q0 -18 -15 -25l-676 -342q-4 -2 -4 -6t4 -6l676 -340q14 -6 15 -25v-22q0 -11 -7.5 -15t-17.5 0l-719 369q-14 6 -14 25z" />
<glyph unicode="=" horiz-adv-x="909" d="M76 463v13q0 20 20 20h717q20 0 21 -20v-13q0 -20 -21 -20h-717q-20 0 -20 20zM76 909v13q0 20 20 20h717q20 0 21 -20v-13q0 -20 -21 -20h-717q-20 0 -20 20z" />
<glyph unicode="&#x3e;" horiz-adv-x="909" d="M76 156v22q0 18 14 25l676 340q4 2 4 6t-4 6l-676 342q-14 6 -14 25v22q0 10 7 14.5t17 -0.5l719 -368q14 -6 15 -25v-30q0 -18 -15 -25l-719 -369q-4 -2 -10 -2q-14 0 -14 17z" />
<glyph unicode="?" horiz-adv-x="675" d="M70 1042v78q0 150 73.5 241t194.5 91q119 0 190.5 -92t71.5 -246q0 -90 -21.5 -155.5t-52 -108.5t-80.5 -96q-55 -59 -79.5 -100.5t-24.5 -100.5v-150q0 -20 -20 -20h-25q-21 0 -21 20v152q0 80 30 132t91 120q70 74 106 138.5t36 172.5q0 125 -55.5 201t-145.5 76 q-92 0 -149.5 -76t-57.5 -199v-78q0 -20 -20 -20h-21q-20 0 -20 20zM223 96q0 39 24.5 63.5t63.5 24.5q37 0 61.5 -24.5t24.5 -63.5q0 -37 -24.5 -61.5t-61.5 -24.5q-39 0 -63.5 24.5t-24.5 61.5z" />
<glyph unicode="@" horiz-adv-x="1564" d="M125 393q0 53 6 111q27 209 131.5 370.5t263 250.5t342.5 89q172 0 302 -68.5t201 -194.5t71 -296q0 -33 -8 -110q-25 -186 -115 -292t-223 -106q-68 0 -117 29t-72 80q-4 10 -10 0q-27 -53 -77 -83t-105 -30q-82 0 -132.5 51.5t-50.5 133.5l3 26l40 324q10 92 71 150.5 t149 58.5q45 0 80.5 -19.5t56.5 -56.5q2 -4 6 -3t4 5l6 45q2 18 21 19h14q10 0 16.5 -7.5t4.5 -15.5l-60 -451q-2 -12 -2 -32q0 -78 44 -125t120 -47q104 0 176 89t92 253q8 74 8 106q0 158 -65.5 274.5t-183 179t-275.5 62.5q-166 0 -311.5 -83t-240.5 -232.5t-120 -341.5 q-6 -51 -6 -103q0 -164 64.5 -285.5t180.5 -188t265 -66.5q111 0 205 28.5t149 71.5q6 4 15 4q8 0 14 -8l6 -6q6 -6 6 -14t-8 -15q-63 -49 -168.5 -81.5t-226.5 -32.5q-164 0 -291 71.5t-196.5 204.5t-69.5 307zM590 356q-8 -72 28.5 -116.5t102.5 -44.5q63 0 107 44t57 117 l6 35v8l14 123l6 37l17 129q4 66 -32 108t-95 42q-66 0 -113 -46.5t-57 -117.5q-8 -45 -21 -160z" />
<glyph unicode="A" horiz-adv-x="751" d="M25 23l313 1392q4 18 22 19h29q18 0 23 -19l315 -1392v-5q0 -18 -18 -18h-21q-18 0 -22 18l-62 285q0 4 -3 6t-7 2h-436q-4 0 -7.5 -2t-3.5 -6l-61 -285q-2 -18 -23 -18h-20q-10 0 -15 6t-3 17zM164 375q-2 -2 1 -5t7 -3h408q4 0 7 3t1 5l-209 944q-2 6 -4 6t-4 -6z" />
<glyph unicode="B" horiz-adv-x="892" d="M180 20v1393q0 20 21 21h264q160 0 251 -96.5t91 -268.5q0 -119 -48 -202t-138 -122q-10 -4 0 -10q90 -41 140 -131t50 -221q0 -180 -91 -281.5t-251 -101.5h-268q-20 0 -21 20zM242 68q0 -8 8 -9h215q133 0 209 86t76 240q0 156 -75 243t-208 87h-217q-8 0 -8 -8v-639z M242 778q0 -8 8 -8h215q131 0 205.5 79t74.5 218q0 145 -73.5 227t-206.5 82h-215q-8 0 -8 -8v-590z" />
<glyph unicode="C" horiz-adv-x="890" d="M139 309v817q0 147 86 235.5t226 88.5q143 0 229 -88t86 -236v-41q0 -20 -21 -20l-22 -2q-20 0 -21 20v47q0 119 -69.5 191t-181.5 72q-113 0 -181.5 -72t-68.5 -191v-825q0 -119 68.5 -191.5t181.5 -72.5t182 72.5t69 191.5v45q0 18 21 19l22 -2q20 0 21 -21v-37 q0 -147 -86 -236t-229 -89q-140 0 -226 89t-86 236z" />
<glyph unicode="D" horiz-adv-x="940" d="M180 20v1393q0 20 21 21h280q141 0 224 -99.5t83 -271.5v-692q0 -172 -82.5 -271.5t-224.5 -99.5h-280q-21 0 -21 20zM242 66q0 -9 8 -9h233q111 0 176.5 84t65.5 230v690q0 147 -64.5 231t-177.5 84h-233q-8 0 -8 -8v-1302z" />
<glyph unicode="E" horiz-adv-x="868" d="M180 20v1393q0 20 21 21h549q20 0 20 -21v-16q0 -21 -20 -21h-500q-8 0 -8 -8v-614q0 -8 8 -9h328q20 0 20 -20v-14q0 -20 -20 -21h-328q-8 0 -8 -8v-616q0 -8 8 -9h500q20 0 20 -20v-17q0 -20 -20 -20h-549q-20 0 -21 20z" />
<glyph unicode="F" horiz-adv-x="806" d="M180 20v1393q0 20 21 21h544q20 0 21 -21v-16q-1 -21 -21 -21h-495q-8 0 -8 -8v-614q0 -8 8 -9h325q20 0 21 -20v-14q0 -20 -21 -21h-325q-8 0 -8 -8v-662q0 -20 -21 -20h-20q-20 0 -21 20z" />
<glyph unicode="G" horiz-adv-x="903" d="M139 299v836q0 143 86 229t226 86q141 0 227 -87t86 -230v-93q0 -20 -21 -20h-20q-20 0 -21 20v97q0 115 -69.5 185.5t-181.5 70.5q-113 0 -181.5 -71t-68.5 -185v-840q0 -115 68.5 -185.5t181.5 -70.5t182 70.5t69 185.5v326q0 8 -8 8h-211q-20 0 -20 20v15q0 20 20 20 h260q20 0 21 -20v-367q0 -143 -86 -229t-227 -86q-140 0 -226 86t-86 229z" />
<glyph unicode="H" horiz-adv-x="956" d="M180 20v1393q0 20 21 21h20q20 0 21 -21v-659q0 -8 8 -9h457q8 0 8 9v659q0 21 20 21h21q20 0 20 -21v-1393q0 -20 -20 -20h-21q-20 0 -20 20v662q0 8 -8 8h-457q-8 0 -8 -8v-662q0 -20 -21 -20h-20q-20 0 -21 20z" />
<glyph unicode="I" horiz-adv-x="421" d="M180 20v1393q0 20 21 21h20q20 0 21 -21v-1393q0 -20 -21 -20h-20q-21 0 -21 20z" />
<glyph unicode="J" horiz-adv-x="839" d="M55 307v189q0 20 21 20h20q20 0 21 -20v-191q0 -119 66.5 -191.5t174.5 -72.5q106 0 173 72.5t67 191.5v1108q0 20 20 21h21q20 0 20 -21v-1106q0 -145 -82.5 -234t-218.5 -89q-137 0 -220 89t-83 234z" />
<glyph unicode="K" horiz-adv-x="878" d="M180 20v1393q0 20 21 21h20q20 0 21 -21v-747q0 -6 4 -7.5t6 5.5l471 755q10 14 25 15h28q12 0 16.5 -7.5t-1.5 -17.5l-328 -532q-6 -6 -2 -13l366 -839l2 -9q0 -16 -18 -16h-29q-16 0 -22 16l-342 787q-2 8 -10 0l-164 -246q-2 -2 -2 -10v-527q0 -20 -21 -20h-20 q-21 0 -21 20z" />
<glyph unicode="L" horiz-adv-x="774" d="M180 20v1393q0 20 21 21h20q20 0 21 -21v-1347q0 -8 8 -9h489q20 0 21 -20v-17q0 -20 -21 -20h-538q-21 0 -21 20z" />
<glyph unicode="M" horiz-adv-x="1034" d="M180 20v1393q0 20 21 21h22q16 0 23 -17l266 -626q2 -4 6 -4.5t6 4.5l264 626q7 17 23 17h23q20 0 20 -21v-1393q0 -20 -20 -20h-21q-20 0 -20 20v1242q0 6 -4.5 6t-6.5 -4l-239 -574q-6 -16 -23 -16h-2q-16 0 -22 16l-244 572q-2 4 -6 4t-4 -6v-1240q0 -20 -21 -20h-20 q-20 0 -21 20z" />
<glyph unicode="N" horiz-adv-x="985" d="M180 20v1393q0 20 21 21h26q16 0 23 -17l485 -1253q2 -6 6 -5t4 7v1247q1 21 21 21h20q20 0 21 -21v-1393q0 -20 -21 -20h-28q-16 0 -23 16l-483 1250q-2 6 -6 5t-4 -7v-1244q0 -20 -21 -20h-20q-20 0 -21 20z" />
<glyph unicode="O" horiz-adv-x="913" d="M139 313v805q0 147 88 239.5t228 92.5q141 0 230 -92t89 -240v-805q0 -147 -89 -238t-230 -91q-140 0 -228 91t-88 238zM201 309q0 -119 70.5 -193.5t183.5 -74.5q114 0 186 74.5t72 193.5v813q0 119 -72 195t-186 76q-113 0 -183.5 -76t-70.5 -195v-813z" />
<glyph unicode="P" horiz-adv-x="878" d="M180 20v1397q0 20 21 21h291q137 0 220 -103.5t83 -273.5q0 -168 -83 -270.5t-218 -102.5h-244q-8 0 -8 -8v-660q0 -20 -21 -20h-20q-20 0 -21 20zM242 752q0 -8 8 -9h239q109 0 176.5 87.5t67.5 230.5t-67.5 231t-176.5 88h-239q-8 0 -8 -8v-620z" />
<glyph unicode="Q" horiz-adv-x="886" d="M139 315v803q0 147 85 239.5t220 92.5q136 0 220 -92t84 -240v-803q0 -137 -72 -226t-193 -103q-8 0 -8 -9v-213q0 -20 -20 -20h-23q-20 0 -20 20v213q0 8 -9 9q-119 14 -191.5 104t-72.5 225zM201 311q0 -119 67.5 -194.5t175.5 -75.5q106 0 174 74.5t68 195.5v811 q0 121 -67.5 196t-174.5 75q-109 0 -176 -76t-67 -195v-811z" />
<glyph unicode="R" horiz-adv-x="874" d="M180 20v1393q0 20 21 21h291q137 0 220 -102.5t83 -270.5q0 -143 -63.5 -240.5t-172.5 -122.5q-8 -4 -6 -10l244 -665l2 -9q0 -14 -19 -14h-18q-19 0 -25 16l-243 670q-2 6 -9 6h-235q-8 0 -8 -8v-664q0 -20 -21 -20h-20q-20 0 -21 20zM242 756q0 -8 8 -8h239 q111 0 177.5 86t66.5 227t-66.5 228t-177.5 87h-239q-8 0 -8 -8v-612z" />
<glyph unicode="S" horiz-adv-x="819" d="M98 1124q0 152 83 239t214 87q139 0 224.5 -98.5t85.5 -257.5v-52q0 -20 -21 -20h-20q-20 0 -21 20v50q0 137 -68.5 220t-179.5 83q-104 0 -169.5 -72t-65.5 -203q0 -76 26.5 -132t78.5 -104t153 -124q121 -90 179 -144.5t89 -118t31 -155.5q0 -162 -86 -260t-223 -98 q-138 0 -223 97t-85 257v39q0 20 21 20h18q20 0 21 -20v-37q0 -135 68.5 -218t177.5 -83t179 80t70 209q0 86 -32.5 146.5t-80.5 103.5t-157 124q-104 80 -160.5 132.5t-91.5 123t-35 166.5z" />
<glyph unicode="T" horiz-adv-x="811" d="M80 1397v16q0 20 20 21h611q20 -1 20 -21v-16q0 -20 -20 -21h-275q-8 0 -8 -8v-1348q0 -20 -20 -20h-21q-20 0 -20 20v1348q0 8 -9 8h-258q-20 0 -20 21z" />
<glyph unicode="U" horiz-adv-x="970" d="M166 362v1051q0 20 20 21h21q20 0 20 -21v-1059q0 -141 71 -227t185 -86q117 0 188.5 86t71.5 227v1059q0 20 21 21h20q20 0 21 -21v-1051q0 -170 -88 -274t-234 -104q-143 0 -230 104.5t-87 273.5z" />
<glyph unicode="V" d="M88 1411v4q0 18 18 19h23q20 0 23 -19l266 -1280q2 -6 4 -6t4 6l266 1280q4 18 23 19h20q23 0 19 -23l-297 -1393q-2 -18 -23 -18h-26q-19 0 -23 18z" />
<glyph unicode="W" horiz-adv-x="1198" d="M70 1411v4q0 18 18 19h23q20 0 22 -19l234 -1268q2 -4 4 -4t4 4l196 1268q4 18 21 19h24q18 0 21 -19l203 -1268q2 -4 4 -4t4 4l215 1268q4 18 22 19h25q10 0 15 -6.5t3 -16.5l-251 -1393q-2 -18 -23 -18h-25q-16 0 -20 18l-199 1262q-2 4 -4 4t-4 -4l-201 -1262 q-2 -18 -20 -18h-25q-18 0 -22 18z" />
<glyph unicode="X" horiz-adv-x="839" d="M92 1417q0 16 19 17h24q16 0 23 -17l256 -631q2 -4 6 -4t6 4l256 631q6 16 23 17h24q10 0 15.5 -7.5t0.5 -17.5l-292 -688q-2 -6 0 -12l292 -684l3 -9q0 -16 -19 -16h-24q-16 0 -23 16l-256 629q-2 4 -6 4t-6 -4l-256 -629q-6 -16 -23 -16h-24q-11 0 -16 7t-1 18l291 686 q4 6 0 12l-291 686z" />
<glyph unicode="Y" horiz-adv-x="808" d="M90 1417q0 16 19 17h22q16 0 23 -17l245 -659q2 -6 6.5 -6t6.5 6l243 659q6 16 23 17h22q10 0 15.5 -7.5t1.5 -17.5l-279 -719q-2 -2 -2 -10v-660q0 -20 -20 -20h-21q-20 0 -20 20v660q0 8 -2 10l-281 719z" />
<glyph unicode="Z" horiz-adv-x="788" d="M84 20v25q0 14 4 25l533 1296q2 4 -0.5 7t-6.5 3h-510q-20 0 -20 21v16q0 20 20 21h568q20 0 20 -21v-24q0 -14 -4 -25l-532 -1296q-2 -4 0 -7.5t6 -3.5h510q20 0 20 -20v-17q0 -20 -20 -20h-568q-20 0 -20 20z" />
<glyph unicode="[" horiz-adv-x="569" d="M49 -197v1731q0 20 21 20h256q20 0 20 -20v-16q0 -20 -20 -21h-207q-8 0 -8 -8v-1641q0 -8 8 -8h209q20 0 20 -20v-17q0 -20 -20 -20h-258q-21 0 -21 20z" />
<glyph unicode="\" horiz-adv-x="585" d="M145 1411v6q0 16 17 17h20q18 0 23 -19l319 -1392v-7q0 -16 -16 -16h-21q-18 0 -22 18z" />
<glyph unicode="]" horiz-adv-x="569" d="M221 -180q0 20 21 20h209q8 0 8 8v1641q0 8 -8 8h-207q-20 0 -21 21v16q0 20 21 20h256q20 0 20 -20v-1731q0 -20 -20 -20h-258q-20 0 -21 20v17z" />
<glyph unicode="^" horiz-adv-x="780" d="M84 664l268 753q6 16 25 17h26q18 0 25 -17l268 -753l2 -9q0 -14 -18 -14h-16q-18 0 -25 16l-244 701q-2 4 -6 4t-6 -4l-242 -701q-6 -16 -24 -16h-17q-22 0 -16 23z" />
<glyph unicode="_" horiz-adv-x="716" d="M55 20v17q0 20 21 20h565q20 0 21 -20v-17q0 -20 -21 -20h-565q-21 0 -21 20z" />
<glyph unicode="`" horiz-adv-x="321" d="M65 1421q0 12 19 13h18q16 0 25 -15l127 -229q4 -8 4 -12q0 -12 -17 -13h-12q-14 0 -24 15l-136 229q-4 8 -4 12z" />
<glyph unicode="a" horiz-adv-x="802" d="M102 262q0 164 88.5 244t235.5 80h182q8 0 8 8v113q0 127 -55 202.5t-160 75.5q-82 0 -143 -50t-70 -130q0 -18 -20 -19l-23 2q-10 0 -15 6.5t-3 16.5q12 104 91 167.5t185 63.5q132 0 203.5 -92t71.5 -248v-682q0 -20 -21 -20h-20q-20 0 -21 20v93q0 6 -4 7t-6 -5 q-39 -66 -104.5 -98.5t-145.5 -32.5q-106 0 -180 62.5t-74 215.5zM164 264q0 -113 55 -168t146 -55q102 0 176.5 65.5t74.5 188.5v227q0 8 -8 8h-180q-121 0 -192.5 -67.5t-71.5 -198.5z" />
<glyph unicode="b" horiz-adv-x="839" d="M152 20v1393q0 20 20 21h21q20 0 20 -21v-487q0 -6 3 -7t5 5q37 57 92.5 87.5t124.5 30.5q123 0 200 -82.5t77 -214.5v-464q0 -131 -77 -214t-200 -83q-70 0 -125 30.5t-90 85.5q-4 4 -7 4t-3 -6v-78q0 -20 -20 -20h-21q-20 0 -20 20zM213 281q0 -106 60.5 -173 t154.5 -67q100 0 162.5 66.5t62.5 173.5v464q0 107 -62.5 173.5t-162.5 66.5q-94 0 -154.5 -66.5t-60.5 -173.5v-464z" />
<glyph unicode="c" horiz-adv-x="786" d="M125 281v464q0 129 79 213t204 84q82 0 146 -35.5t100 -95t36 -127.5v-6q0 -20 -20 -20h-21q-20 0 -20 20v6q0 80 -62.5 140.5t-158.5 60.5q-98 0 -160 -66.5t-62 -173.5v-464q0 -106 61.5 -173t160.5 -67q96 0 158.5 60.5t62.5 140.5v6q0 20 20 20h21q20 0 20 -20v-6 q0 -68 -36 -127.5t-100.5 -95t-145.5 -35.5q-125 0 -204 83t-79 214z" />
<glyph unicode="d" horiz-adv-x="839" d="M125 281v464q0 131 77 214t199 83q68 0 123.5 -29.5t89.5 -84.5q4 -4 7.5 -4t3.5 6v483q0 21 20 21h21q20 0 20 -21v-1393q0 -20 -20 -20h-21q-20 0 -20 20v76q0 6 -3.5 6t-7.5 -4q-35 -55 -89 -84.5t-124 -29.5q-123 0 -199.5 83t-76.5 214zM186 281q0 -106 62.5 -173 t161.5 -67q94 0 154.5 66.5t60.5 173.5v464q0 106 -60.5 173t-154.5 67q-98 0 -161 -66.5t-63 -173.5v-464z" />
<glyph unicode="e" horiz-adv-x="800" d="M125 281v464q0 129 79 213t204 84t203.5 -84t78.5 -213v-225q0 -20 -20 -20h-475q-8 0 -9 -8v-211q0 -106 61.5 -173t160.5 -67q80 0 137 47t76 125q6 18 22 18h21q10 0 15 -7t3 -17q-18 -100 -93 -161.5t-181 -61.5q-125 0 -204 83t-79 214zM186 561q0 -8 9 -8h426 q8 0 8 8v184q0 106 -61.5 173t-159.5 67q-99 0 -160.5 -66.5t-61.5 -173.5v-184z" />
<glyph unicode="f" horiz-adv-x="540" d="M68 993v13q0 20 20 20h92q8 0 8 8v90q0 166 50.5 247t175.5 81h30q20 0 21 -20v-15q0 -20 -21 -20h-28q-97 0 -131.5 -66.5t-34.5 -208.5v-88q0 -8 8 -8h180q20 0 21 -20v-13q0 -20 -21 -20h-180q-8 0 -8 -8v-945q0 -20 -21 -20h-20q-20 0 -21 20v945q0 8 -8 8h-92 q-20 0 -20 20z" />
<glyph unicode="g" horiz-adv-x="813" d="M125 281v464q0 131 75.5 214t198.5 83q72 0 127.5 -31.5t87.5 -88.5q4 -4 7.5 -3t3.5 7v80q0 20 20 20h23q20 0 20 -20v-1002q0 -414 -356 -414q-25 0 -25 21v14q0 20 21 21q156 0 226.5 92t70.5 268v96q0 6 -3.5 7.5t-7.5 -3.5q-35 -57 -90 -88.5t-125 -31.5 q-123 0 -198.5 82t-75.5 213zM186 283q0 -106 62.5 -173t161.5 -67q94 0 154.5 66.5t60.5 173.5v462q0 106 -60.5 173t-154.5 67q-98 0 -161 -66.5t-63 -173.5v-462z" />
<glyph unicode="h" d="M152 20v1393q0 20 20 21h21q20 0 20 -21v-506q0 -6 4 -6t6 6q33 63 91.5 98t131.5 35q121 0 188.5 -81.5t67.5 -227.5v-711q0 -20 -20 -20h-20q-20 0 -21 20v703q0 123 -54.5 191.5t-154.5 68.5t-159.5 -73.5t-59.5 -202.5v-687q0 -20 -20 -20h-21q-20 0 -20 20z" />
<glyph unicode="i" horiz-adv-x="411" d="M119 1343q0 37 24.5 62t63.5 25q37 0 61.5 -25t24.5 -62q0 -39 -24.5 -63.5t-61.5 -24.5q-39 0 -63.5 25t-24.5 63zM176 20v986q0 20 21 20h20q20 0 21 -20v-986q0 -20 -21 -20h-20q-21 0 -21 20z" />
<glyph unicode="j" horiz-adv-x="389" d="M-29 -395q0 20 21 20q78 8 119 68.5t41 165.5v1147q0 20 20 20h21q20 0 20 -20v-1147q0 -133 -55.5 -208t-165.5 -83q-21 0 -21 20v17zM96 1343q0 37 24.5 62t61.5 25q39 0 63.5 -25t24.5 -62q0 -39 -24.5 -63.5t-63.5 -24.5q-37 0 -61.5 25t-24.5 63z" />
<glyph unicode="k" horiz-adv-x="776" d="M152 20v1393q0 20 20 21h21q20 0 20 -21v-905q0 -4 4 -5t6 3l377 508q8 12 27 12h24q12 0 16.5 -8t-3.5 -17l-193 -258q-4 -6 -2 -10l236 -710l2 -9q0 -14 -19 -14h-22q-18 0 -25 16l-211 660q-2 12 -12 2l-201 -270q-4 -4 -4 -11v-377q0 -20 -20 -20h-21q-20 0 -20 20z " />
<glyph unicode="l" horiz-adv-x="337" d="M139 20v1393q0 20 21 21h20q20 0 21 -21v-1393q0 -20 -21 -20h-20q-21 0 -21 20z" />
<glyph unicode="m" horiz-adv-x="1294" d="M152 20v986q0 20 20 20h21q20 0 20 -20v-93q0 -6 4 -7t6 5q33 61 90.5 95t124.5 34q80 0 137.5 -45t86.5 -129q4 -12 10 2q31 86 93 129t144 43q111 0 178.5 -89t67.5 -240v-691q0 -20 -20 -20h-19q-20 0 -20 20v685q0 127 -56.5 202.5t-146.5 75.5q-94 0 -151.5 -74.5 t-57.5 -201.5v-687q0 -20 -20 -20h-21q-20 0 -20 20v685q0 127 -55.5 202.5t-143.5 75.5q-96 0 -153.5 -73.5t-57.5 -202.5v-687q0 -20 -20 -20h-21q-20 0 -20 20z" />
<glyph unicode="n" d="M152 20v986q0 20 20 20h21q20 0 20 -20v-99q0 -6 4 -6t6 6q33 63 91.5 98t131.5 35q121 0 188.5 -81.5t67.5 -227.5v-711q0 -20 -20 -20h-20q-20 0 -21 20v703q0 123 -54.5 191.5t-154.5 68.5t-159.5 -73.5t-59.5 -202.5v-687q0 -20 -20 -20h-21q-20 0 -20 20z" />
<glyph unicode="o" horiz-adv-x="815" d="M125 281v464q0 129 79 213t204 84t203.5 -84t78.5 -213v-464q0 -131 -79 -214t-203 -83q-125 0 -204 83t-79 214zM186 281q0 -106 61.5 -173t160.5 -67q98 0 159.5 66.5t61.5 173.5v464q0 106 -61.5 173t-159.5 67t-160 -66.5t-62 -173.5v-464z" />
<glyph unicode="p" horiz-adv-x="851" d="M166 -387v1393q0 20 20 20h21q20 0 20 -20v-78q0 -6 3 -7t6 5q35 55 91 85.5t126 30.5q122 0 198 -82.5t76 -214.5v-464q0 -131 -76 -214t-198 -83q-70 0 -125.5 30.5t-89.5 85.5q-4 4 -7.5 4t-3.5 -6v-485q0 -20 -20 -21h-21q-20 0 -20 21zM227 281q0 -106 60.5 -173 t154.5 -67q98 0 162 66.5t64 173.5v464q0 107 -63.5 173.5t-162.5 66.5q-94 0 -154.5 -66.5t-60.5 -173.5v-464z" />
<glyph unicode="q" horiz-adv-x="851" d="M125 281v464q0 131 77 214t199 83q70 0 124.5 -29.5t88.5 -84.5q4 -4 7.5 -4t3.5 6v76q0 20 20 20h21q20 0 20 -20v-1393q0 -20 -20 -21h-21q-20 0 -20 21v483q0 6 -3.5 6t-7.5 -4q-35 -55 -89 -84.5t-124 -29.5q-123 0 -199.5 83t-76.5 214zM186 281q0 -106 62.5 -173 t161.5 -67q94 0 154.5 66.5t60.5 173.5v464q0 106 -60.5 173t-154.5 67q-98 0 -161 -66.5t-63 -173.5v-464z" />
<glyph unicode="r" horiz-adv-x="561" d="M152 20v986q0 20 20 20h21q20 0 20 -20v-134q0 -6 4 -6t6 8q31 76 83 118t124 42q51 0 88 -20q14 -8 8 -27l-8 -24q-6 -20 -26 -11q-33 14 -72 15q-90 -2 -148.5 -89t-58.5 -219v-639q0 -20 -20 -20h-21q-20 0 -20 20z" />
<glyph unicode="s" horiz-adv-x="720" d="M106 240v10q0 20 21 20h18q20 0 21 -20v-8q0 -84 58.5 -140.5t156.5 -56.5q92 0 148.5 57.5t56.5 151.5q0 68 -31 111t-75 68.5t-122 58.5q-82 35 -131 63.5t-82.5 81.5t-33.5 135q0 119 72.5 190.5t193.5 71.5q119 0 191.5 -72.5t72.5 -187.5v-6q0 -20 -20 -20h-17 q-20 0 -20 20v6q0 88 -58.5 146.5t-150.5 58.5t-147.5 -57.5t-55.5 -149.5q0 -61 27.5 -103t69.5 -66.5t114 -55.5q88 -37 139 -66.5t88 -85t37 -141.5q0 -119 -73.5 -190.5t-194.5 -71.5t-197 70.5t-76 177.5z" />
<glyph unicode="t" horiz-adv-x="518" d="M70 993v13q0 20 20 20h84q8 0 8 8v230q0 20 21 20h22q20 0 21 -20v-230q0 -8 8 -8h174q20 0 21 -20v-13q-1 -20 -21 -20h-174q-8 0 -8 -8v-707q0 -113 38 -157t119 -44h23q20 0 20 -20v-17q0 -20 -20 -20h-31q-104 0 -158.5 54.5t-54.5 199.5v711q0 8 -8 8h-84 q-20 0 -20 20z" />
<glyph unicode="u" d="M139 283v723q0 20 21 20h20q20 0 21 -20v-709q0 -127 54 -190.5t155 -63.5q100 0 158.5 73.5t58.5 202.5v687q0 20 20 20h21q20 0 20 -20v-986q0 -20 -20 -20h-21q-20 0 -20 20v82q0 6 -4.5 7.5t-6.5 -5.5q-62 -118 -212 -118h-3q-123 0 -192.5 74.5t-69.5 222.5z" />
<glyph unicode="v" horiz-adv-x="706" d="M59 1010q0 16 21 16h26q20 0 23 -18l221 -895q2 -6 4 -6.5t4 6.5l222 895q4 18 22 18h27q23 0 16 -22l-252 -986q-2 -18 -22 -18h-29q-19 0 -23 18l-258 986z" />
<glyph unicode="w" horiz-adv-x="1064" d="M59 1004v4q0 18 19 18h20q20 0 23 -18l182 -904q2 -6 4 -6t4 6l185 904q4 18 22 18h23q20 0 22 -18l187 -904q2 -6 4 -6t4 6l186 904q4 18 23 18h20q10 0 15.5 -6t3.5 -16l-218 -986q-2 -18 -22 -18h-25q-18 0 -22 18l-187 879q-2 6 -4 6t-4 -6l-180 -879q-2 -18 -22 -18 h-27q-19 0 -23 18z" />
<glyph unicode="x" horiz-adv-x="692" d="M49 1012q0 6 5 10t14 4h26q18 0 25 -14l223 -439q2 -4 6 -4t6 4l221 439q6 14 25 14h25q10 0 14 -7t0 -18l-256 -483q-2 -6 0 -12l256 -481q2 -4 2 -11q0 -14 -16 -14h-25q-18 0 -25 14l-221 439q-2 4 -6 4t-6 -4l-223 -439q-6 -14 -25 -14h-24q-13 0 -18 7t1 18l260 481 q4 6 0 12l-260 483z" />
<glyph unicode="y" horiz-adv-x="686" d="M45 1010q0 16 21 16h22q20 0 23 -18l229 -912q2 -6 4 -6t4 6l227 912q4 18 23 18h23q10 0 15 -6t3 -16l-293 -1125q-35 -127 -64.5 -187.5t-68.5 -81t-107 -20.5h-10q-4 0 -8 6.5t-4 14.5v14q0 20 20 21h2q59 2 91 28.5t54.5 95t59.5 224.5q2 4 1 7t-1 5l-264 998z" />
<glyph unicode="z" horiz-adv-x="722" d="M86 20v23q0 12 6 27l475 888q4 10 -4 11h-450q-20 0 -21 20v17q0 20 21 20h512q20 0 20 -20v-23q0 -10 -6 -27l-477 -888q-4 -10 4 -11h455q20 0 20 -20v-17q0 -20 -20 -20h-515q-20 0 -20 20z" />
<glyph unicode="{" horiz-adv-x="473" d="M49 668v18q0 18 19 21q49 12 71.5 55t22.5 129v442q0 119 41 170t135 51h65q20 0 21 -20v-16q0 -20 -21 -21h-59q-66 0 -93.5 -39t-27.5 -127v-434q0 -90 -20.5 -141t-67.5 -74q-10 -4 0 -10q45 -25 66.5 -77t21.5 -140v-449q0 -88 28 -127t93 -39h59q20 0 21 -20v-17 q0 -20 -21 -20h-65q-94 0 -135 51t-41 170v457q0 86 -22.5 130t-71.5 56q-18 4 -19 21z" />
<glyph unicode="|" horiz-adv-x="243" d="M90 -143v1679q0 20 21 20h20q20 0 21 -20v-1679q0 -20 -21 -21h-20q-21 1 -21 21z" />
<glyph unicode="}" horiz-adv-x="473" d="M49 -180q0 20 21 20h61q63 0 91 39t28 127v449q0 88 20.5 140t67.5 77q10 6 0 10q-47 23 -67.5 74t-20.5 141v434q0 88 -27.5 127t-91.5 39h-61q-20 0 -21 21v16q0 20 21 20h65q94 0 135 -51t41 -170v-442q0 -86 22.5 -129t72.5 -55q18 -2 18 -21v-18q0 -16 -18 -21 q-49 -12 -72 -56t-23 -130v-457q0 -119 -41 -170t-135 -51h-65q-20 0 -21 20v17z" />
<glyph unicode="~" horiz-adv-x="909" d="M84 573q31 57 81 89t118 32q49 0 87 -14t83 -41q59 -37 98 -53.5t96 -16.5q43 0 72 20.5t61 63.5q4 6 11.5 8.5t13.5 -2.5l8 -4l4 -2q16 -12 6 -28q-37 -53 -79 -83t-99 -30q-61 0 -105 18.5t-110 57.5q-39 23 -72.5 35t-72.5 12q-55 0 -92 -21.5t-64 -64.5 q-4 -8 -12 -10t-17 2l-8 4q-16 10 -8 28z" />
<glyph unicode="&#xa2;" horiz-adv-x="786" d="M125 465v465q0 121 67.5 201.5t178.5 93.5q8 0 8 8l-2 141q0 20 20 21h19q20 0 20 -21l-2 -141q0 -8 8 -8q109 -12 178.5 -87t69.5 -169v-13q0 -14 -20 -14h-21q-20 0 -20 21v6q0 80 -62.5 140t-158.5 60q-98 0 -160 -66.5t-62 -172.5v-465q0 -106 61.5 -173t160.5 -67 q96 0 158.5 60.5t62.5 140.5v6q0 20 20 21h21q20 0 20 -21v-6q0 -96 -68.5 -170t-179.5 -86q-8 0 -8 -8l2 -142q0 -20 -20 -20h-19q-20 0 -20 20l2 142q0 8 -8 8q-111 12 -178.5 93t-67.5 202z" />
<glyph unicode="&#xa3;" horiz-adv-x="1013" d="M180 678v12q0 20 21 21h123q8 0 8 8v354q0 176 83 276.5t224 100.5q203 0 268 -242v-4q0 -16 -16 -20l-17 -4h-6q-16 0 -18 16q-49 199 -213 199q-117 0 -182.5 -84t-65.5 -236v-356q0 -8 8 -8h308q20 0 20 -21v-12q0 -20 -20 -21h-308q-8 0 -8 -8v-303 q0 -90 -20.5 -163.5t-57.5 -116.5q-6 -11 4 -11h594q20 0 21 -20v-15q0 -20 -21 -20h-659q-20 0 -21 20v19q0 16 13 24q39 31 64.5 107t25.5 170v309q0 8 -8 8h-123q-20 0 -21 21z" />
<glyph unicode="&#xa5;" horiz-adv-x="1062" d="M182 440v9q0 20 21 20h282q8 0 9 8v170q0 8 -9 8h-282q-20 0 -21 21v6q0 20 21 20h274q4 0 6 3.5t0 7.5l-272 696q-2 4 -2 10q0 14 16 15h25q16 0 22 -17l246 -659q2 -6 6 -6t6 6l244 659q6 16 23 17h22q10 0 15.5 -7.5t1.5 -17.5l-271 -696q-2 -4 0 -7.5t6 -3.5h289 q20 0 21 -20v-6q-1 -21 -21 -21h-297q-8 0 -8 -8v-170q0 -8 8 -8h297q20 0 21 -20v-9q0 -20 -21 -20h-297q-8 0 -8 -8v-392q0 -20 -20 -20h-21q-20 0 -20 20v392q0 8 -9 8h-282q-20 0 -21 20z" />
<glyph unicode="&#xa8;" horiz-adv-x="550" d="M54 1343q0 37 24.5 62t63.5 25t63.5 -25t24.5 -62q0 -39 -24.5 -63.5t-63.5 -24.5t-63.5 25t-24.5 63zM320 1343q0 37 24.5 62t63.5 25t63.5 -25t24.5 -62q0 -39 -24.5 -63.5t-63.5 -24.5t-63.5 25t-24.5 63z" />
<glyph unicode="&#xa9;" horiz-adv-x="1761" d="M139 711q0 205 97.5 373.5t266.5 267t376 98.5q209 0 378.5 -98.5t267 -267.5t97.5 -373q0 -199 -97.5 -366t-267.5 -264t-378 -97q-207 0 -376 97t-266.5 264t-97.5 366zM190 711q0 -184 91.5 -339t249 -246t348.5 -91q192 0 349.5 91t249 245.5t91.5 339.5 q0 190 -91.5 348t-249 249t-349.5 91q-190 0 -348 -91t-249.5 -249t-91.5 -348zM721 520v379q0 66 44 105.5t116 39.5q74 0 117.5 -39.5t43.5 -105.5v-16q0 -20 -20 -21h-10q-20 0 -21 21v20q0 41 -30.5 67.5t-79.5 26.5t-79 -26.5t-30 -67.5v-387q0 -43 29.5 -68.5 t79.5 -25.5q49 0 79.5 25.5t30.5 68.5v21q0 20 21 20h10q20 0 20 -20v-17q0 -68 -44 -107.5t-117 -39.5q-72 0 -116 40t-44 107z" />
<glyph unicode="&#xab;" horiz-adv-x="983" d="M184 575.5q0 8.5 4 14.5l252 330q8 12 27 12h14q12 0 16.5 -7t-3.5 -18l-248 -325q-2 -6 0 -13l248 -325q4 -5 4 -13q0 -4 -4.5 -8t-12.5 -4h-14q-18 0 -27 12l-252 330q-4 6 -4 14.5zM475 575.5q0 8.5 4 14.5l250 330q8 12 27 12h16q12 0 16.5 -7t-4.5 -18l-249 -325 q-2 -6 0 -13l249 -325q4 -5 4 -13q0 -4 -4 -8t-12 -4h-16q-18 0 -27 12l-250 330q-4 6 -4 14.5z" />
<glyph unicode="&#xad;" horiz-adv-x="620" d="M76 647v17q0 20 20 20h428q20 0 21 -20v-17q0 -20 -21 -20h-428q-20 0 -20 20z" />
<glyph unicode="&#xae;" horiz-adv-x="901" d="M55 1075q0 106 53.5 196.5t143.5 142.5t199 52q106 0 197 -52t144.5 -142t53.5 -197q0 -106 -53.5 -196.5t-144.5 -142.5t-197 -52q-109 0 -199 52t-143.5 142.5t-53.5 196.5zM106 1075q0 -92 46.5 -171t125 -125t173.5 -46q94 0 172.5 46t125 125t46.5 171t-46.5 171 t-125 125t-172.5 46t-173 -46t-125.5 -125t-46.5 -171zM354 913v318q0 20 21 20h96q45 0 72.5 -28.5t27.5 -73.5q0 -33 -15 -57.5t-42 -34.5q-6 -2 -4 -10l57 -129q2 -4 2 -11q0 -14 -16 -14h-8q-16 0 -23 16l-61 135q-2 6 -8 7h-45q-8 0 -9 -9v-129q0 -20 -20 -20h-4 q-20 0 -21 20zM399 1094q0 -8 9 -9h59q27 0 43 17.5t16 46.5t-16 46t-43 17h-59q-9 0 -9 -8v-110z" />
<glyph unicode="&#xb4;" horiz-adv-x="321" d="M67 1172.5q-4 7.5 2 17.5l127 229q6 14 25 15h18q12 0 16.5 -7.5t-1.5 -17.5l-133 -229q-10 -14 -25 -15h-12q-13 0 -17 7.5z" />
<glyph unicode="&#xb8;" horiz-adv-x="210" d="M6 -342l4 8q4 16 23 10q10 -2 28 -2q41 0 69 27t28 86q0 92 -86 188q-8 8 -7 16.5t11 8.5h12q14 0 21 -6l8 -8q94 -88 94 -197q0 -14 -4 -43q-8 -63 -47 -92t-92 -29q-25 0 -48 6q-20 2 -14 25v2z" />
<glyph unicode="&#xbb;" horiz-adv-x="983" d="M194.5 226q-4.5 7 4.5 18l250 325q4 6 0 13l-250 325q-4 4 -4 13q0 4 4 8t12 4h14q18 0 27 -12l252 -330q4 -6 4 -14.5t-4 -14.5l-252 -330q-8 -12 -27 -12h-14q-12 0 -16.5 7zM483.5 226q-4.5 7 4.5 18l250 325q4 6 0 13l-250 325q-4 4 -4 13q0 4 4 8t12 4h14 q18 0 27 -12l252 -330q4 -6 4 -14.5t-4 -14.5l-252 -330q-8 -12 -27 -12h-14q-12 0 -16.5 7z" />
<glyph unicode="&#xc1;" horiz-adv-x="751" d="M25 23l313 1392q4 18 22 19h29q18 0 23 -19l315 -1392v-5q0 -18 -18 -18h-21q-18 0 -22 18l-62 285q0 4 -3 6t-7 2h-436q-4 0 -7.5 -2t-3.5 -6l-61 -285q-2 -18 -23 -18h-20q-10 0 -15 6t-3 17zM164 375q-2 -2 1 -5t7 -3h408q4 0 7 3t1 5l-209 944q-2 6 -4 6t-4 -6z M315 1580.5q-4 7.5 2 17.5l127 229q6 14 25 15h18q12 0 16.5 -7.5t-1.5 -17.5l-133 -229q-10 -14 -25 -15h-12q-13 0 -17 7.5z" />
<glyph unicode="&#xc9;" horiz-adv-x="868" d="M180 20v1393q0 20 21 21h549q20 0 20 -21v-16q0 -21 -20 -21h-500q-8 0 -8 -8v-614q0 -8 8 -9h328q20 0 20 -20v-14q0 -20 -20 -21h-328q-8 0 -8 -8v-616q0 -8 8 -9h500q20 0 20 -20v-17q0 -20 -20 -20h-549q-20 0 -21 20zM413 1580.5q-4 7.5 2 17.5l127 229q6 14 25 15 h18q12 0 16.5 -7.5t-1.5 -17.5l-133 -229q-10 -14 -25 -15h-12q-13 0 -17 7.5z" />
<glyph unicode="&#xcd;" horiz-adv-x="421" d="M149 1580.5q-4 7.5 2 17.5l127 229q6 14 25 15h18q12 0 16.5 -7.5t-1.5 -17.5l-133 -229q-10 -14 -25 -15h-12q-13 0 -17 7.5zM180 20v1393q0 20 21 21h20q20 0 21 -21v-1393q0 -20 -21 -20h-20q-21 0 -21 20z" />
<glyph unicode="&#xd3;" horiz-adv-x="913" d="M139 313v805q0 147 88 239.5t228 92.5q141 0 230 -92t89 -240v-805q0 -147 -89 -238t-230 -91q-140 0 -228 91t-88 238zM201 309q0 -119 70.5 -193.5t183.5 -74.5q114 0 186 74.5t72 193.5v813q0 119 -72 195t-186 76q-113 0 -183.5 -76t-70.5 -195v-813zM393 1578.5 q-4 7.5 2 17.5l127 229q6 14 25 15h18q12 0 16.5 -7.5t-1.5 -17.5l-133 -229q-10 -14 -25 -15h-12q-13 0 -17 7.5z" />
<glyph unicode="&#xda;" horiz-adv-x="970" d="M166 362v1051q0 20 20 21h21q20 0 20 -21v-1059q0 -141 71 -227t185 -86q117 0 188.5 86t71.5 227v1059q0 20 21 21h20q20 0 21 -21v-1051q0 -170 -88 -274t-234 -104q-143 0 -230 104.5t-87 273.5zM424 1580.5q-4 7.5 2 17.5l127 229q6 14 25 15h18q12 0 16.5 -7.5 t-1.5 -17.5l-133 -229q-10 -14 -25 -15h-12q-13 0 -17 7.5z" />
<glyph unicode="&#xdd;" horiz-adv-x="808" d="M90 1417q0 16 19 17h22q16 0 23 -17l245 -659q2 -6 6.5 -6t6.5 6l243 659q6 16 23 17h22q10 0 15.5 -7.5t1.5 -17.5l-279 -719q-2 -2 -2 -10v-660q0 -20 -20 -20h-21q-20 0 -20 20v660q0 8 -2 10l-281 719zM344 1580.5q-4 7.5 2 17.5l127 229q6 14 25 15h18 q12 0 16.5 -7.5t-1.5 -17.5l-133 -229q-10 -14 -25 -15h-12q-13 0 -17 7.5z" />
<glyph unicode="&#xe1;" horiz-adv-x="802" d="M102 262q0 164 88.5 244t235.5 80h182q8 0 8 8v113q0 127 -55 202.5t-160 75.5q-82 0 -143 -50t-70 -130q0 -18 -20 -19l-23 2q-10 0 -15 6.5t-3 16.5q12 104 91 167.5t185 63.5q132 0 203.5 -92t71.5 -248v-682q0 -20 -21 -20h-20q-20 0 -21 20v93q0 6 -4 7t-6 -5 q-39 -66 -104.5 -98.5t-145.5 -32.5q-106 0 -180 62.5t-74 215.5zM164 264q0 -113 55 -168t146 -55q102 0 176.5 65.5t74.5 188.5v227q0 8 -8 8h-180q-121 0 -192.5 -67.5t-71.5 -198.5zM340 1172.5q-4 7.5 2 17.5l127 229q6 14 25 15h18q12 0 16.5 -7.5t-1.5 -17.5 l-133 -229q-10 -14 -25 -15h-12q-13 0 -17 7.5z" />
<glyph unicode="&#xe9;" horiz-adv-x="800" d="M125 281v464q0 129 79 213t204 84t203.5 -84t78.5 -213v-225q0 -20 -20 -20h-475q-8 0 -9 -8v-211q0 -106 61.5 -173t160.5 -67q80 0 137 47t76 125q6 18 22 18h21q10 0 15 -7t3 -17q-18 -100 -93 -161.5t-181 -61.5q-125 0 -204 83t-79 214zM186 561q0 -8 9 -8h426 q8 0 8 8v184q0 106 -61.5 173t-159.5 67q-99 0 -160.5 -66.5t-61.5 -173.5v-184zM340 1172.5q-4 7.5 2 17.5l127 229q6 14 25 15h18q12 0 16.5 -7.5t-1.5 -17.5l-133 -229q-10 -14 -25 -15h-12q-13 0 -17 7.5z" />
<glyph unicode="&#xed;" horiz-adv-x="319" d="M100 1172.5q-4 7.5 2 17.5l127 229q6 14 25 15h18q12 0 16.5 -7.5t-1.5 -17.5l-133 -229q-10 -14 -25 -15h-12q-13 0 -17 7.5zM129 20v986q0 20 21 20h20q20 0 20 -20v-986q0 -20 -20 -20h-20q-21 0 -21 20z" />
<glyph unicode="&#xf3;" horiz-adv-x="815" d="M125 281v464q0 129 79 213t204 84t203.5 -84t78.5 -213v-464q0 -131 -79 -214t-203 -83q-125 0 -204 83t-79 214zM186 281q0 -106 61.5 -173t160.5 -67q98 0 159.5 66.5t61.5 173.5v464q0 106 -61.5 173t-159.5 67t-160 -66.5t-62 -173.5v-464zM346 1172.5q-4 7.5 2 17.5 l127 229q6 14 25 15h18q12 0 16.5 -7.5t-1.5 -17.5l-133 -229q-10 -14 -25 -15h-12q-13 0 -17 7.5z" />
<glyph unicode="&#xfa;" d="M139 283v723q0 20 21 20h20q20 0 21 -20v-709q0 -127 54 -190.5t155 -63.5q100 0 158.5 73.5t58.5 202.5v687q0 20 20 20h21q20 0 20 -20v-986q0 -20 -20 -20h-21q-20 0 -20 20v82q0 6 -4.5 7.5t-6.5 -5.5q-63 -119 -215 -118q-123 0 -192.5 74.5t-69.5 222.5z M352 1172.5q-4 7.5 2 17.5l127 229q6 14 25 15h18q12 0 16.5 -7.5t-1.5 -17.5l-133 -229q-10 -14 -25 -15h-12q-13 0 -17 7.5z" />
<glyph unicode="&#xfd;" horiz-adv-x="686" d="M45 1010q0 16 21 16h22q20 0 23 -18l229 -912q2 -6 4 -6t4 6l227 912q4 18 23 18h23q10 0 15 -6t3 -16l-293 -1125q-35 -127 -64.5 -187.5t-68.5 -81t-107 -20.5h-10q-4 0 -8 6.5t-4 14.5v14q0 20 20 21h2q59 2 91 28.5t54.5 95t59.5 224.5q2 4 1 7t-1 5l-264 998z M282 1172.5q-4 7.5 2 17.5l127 229q6 14 25 15h18q12 0 16.5 -7.5t-1.5 -17.5l-133 -229q-10 -14 -25 -15h-12q-13 0 -17 7.5z" />
<glyph unicode="&#x10c;" horiz-adv-x="890" d="M139 309v817q0 147 86 235.5t226 88.5q143 0 229 -88t86 -236v-41q0 -20 -21 -20l-22 -2q-20 0 -21 20v47q0 119 -69.5 191t-181.5 72q-113 0 -181.5 -72t-68.5 -191v-825q0 -119 68.5 -191.5t181.5 -72.5t182 72.5t69 191.5v45q0 18 21 19l22 -2q20 0 21 -21v-37 q0 -147 -86 -236t-229 -89q-140 0 -226 89t-86 236zM271 1829q0 12 16 13h31q14 0 24 -15l105 -168q2 -2 6 -2t6 2l104 168q10 14 25 15h29q12 0 16 -7.5t-2 -17.5l-137 -207q-8 -12 -25 -12h-37q-14 0 -24 14l-133 205q-4 8 -4 12z" />
<glyph unicode="&#x10d;" horiz-adv-x="786" d="M125 281v464q0 129 79 213t204 84q82 0 146 -35.5t100 -95t36 -127.5v-6q0 -20 -20 -20h-21q-20 0 -20 20v6q0 80 -62.5 140.5t-158.5 60.5q-98 0 -160 -66.5t-62 -173.5v-464q0 -106 61.5 -173t160.5 -67q96 0 158.5 60.5t62.5 140.5v6q0 20 20 20h21q20 0 20 -20v-6 q0 -68 -36 -127.5t-100.5 -95t-145.5 -35.5q-125 0 -204 83t-79 214zM228 1421q0 12 16 13h31q14 0 24 -15l105 -168q2 -2 6 -2t6 2l104 168q10 14 25 15h29q12 0 16 -7.5t-2 -17.5l-137 -207q-8 -12 -25 -12h-37q-14 0 -24 14l-133 205q-4 8 -4 12z" />
<glyph unicode="&#x10e;" horiz-adv-x="940" d="M180 20v1393q0 20 21 21h280q141 0 224 -99.5t83 -271.5v-692q0 -172 -82.5 -271.5t-224.5 -99.5h-280q-21 0 -21 20zM242 66q0 -9 8 -9h233q111 0 176.5 84t65.5 230v690q0 147 -64.5 231t-177.5 84h-233q-8 0 -8 -8v-1302zM287 1822q0 12 16 13h31q14 0 24 -15 l105 -168q2 -2 6 -2t6 2l104 168q10 14 25 15h29q12 0 16 -7.5t-2 -17.5l-137 -207q-8 -12 -25 -12h-37q-14 0 -24 14l-133 205q-4 8 -4 12z" />
<glyph unicode="&#x10f;" horiz-adv-x="839" d="M125 281v464q0 131 77 214t199 83q68 0 123.5 -29.5t89.5 -84.5q4 -4 7.5 -4t3.5 6v483q0 21 20 21h21q20 0 20 -21v-1393q0 -20 -20 -20h-21q-20 0 -20 20v76q0 6 -3.5 6t-7.5 -4q-35 -55 -89 -84.5t-124 -29.5q-123 0 -199.5 83t-76.5 214zM186 281q0 -106 62.5 -173 t161.5 -67q94 0 154.5 66.5t60.5 173.5v464q0 106 -60.5 173t-154.5 67q-98 0 -161 -66.5t-63 -173.5v-464zM837 1172.5q-4 7.5 2 17.5l127 229q6 14 25 15h18q12 0 16.5 -7.5t-1.5 -17.5l-133 -229q-10 -14 -25 -15h-12q-13 0 -17 7.5z" />
<glyph unicode="&#x11a;" horiz-adv-x="868" d="M180 20v1393q0 20 21 21h549q20 0 20 -21v-16q0 -21 -20 -21h-500q-8 0 -8 -8v-614q0 -8 8 -9h328q20 0 20 -20v-14q0 -20 -20 -21h-328q-8 0 -8 -8v-616q0 -8 8 -9h500q20 0 20 -20v-17q0 -20 -20 -20h-549q-20 0 -21 20zM295 1829q0 12 16 13h31q14 0 24 -15l105 -168 q2 -2 6 -2t6 2l104 168q10 14 25 15h29q12 0 16 -7.5t-2 -17.5l-137 -207q-8 -12 -25 -12h-37q-14 0 -24 14l-133 205q-4 8 -4 12z" />
<glyph unicode="&#x11b;" horiz-adv-x="800" d="M125 281v464q0 129 79 213t204 84t203.5 -84t78.5 -213v-225q0 -20 -20 -20h-475q-8 0 -9 -8v-211q0 -106 61.5 -173t160.5 -67q80 0 137 47t76 125q6 18 22 18h21q10 0 15 -7t3 -17q-18 -100 -93 -161.5t-181 -61.5q-125 0 -204 83t-79 214zM186 561q0 -8 9 -8h426 q8 0 8 8v184q0 106 -61.5 173t-159.5 67q-99 0 -160.5 -66.5t-61.5 -173.5v-184zM221 1415q0 12 16 13h31q14 0 24 -15l105 -168q2 -2 6 -2t6 2l104 168q10 14 25 15h29q12 0 16 -7.5t-2 -17.5l-137 -207q-8 -12 -25 -12h-37q-14 0 -24 14l-133 205q-4 8 -4 12z" />
<glyph unicode="&#x147;" horiz-adv-x="985" d="M180 20v1393q0 20 21 21h26q16 0 23 -17l485 -1253q2 -6 6 -5t4 7v1247q1 21 21 21h20q20 0 21 -21v-1393q0 -20 -21 -20h-28q-16 0 -23 16l-483 1250q-2 6 -6 5t-4 -7v-1244q0 -20 -21 -20h-20q-20 0 -21 20zM314 1849q0 12 16 13h31q14 0 24 -15l105 -168q2 -2 6 -2 t6 2l104 168q10 14 25 15h29q12 0 16 -7.5t-2 -17.5l-137 -207q-8 -12 -25 -12h-37q-14 0 -24 14l-133 205q-4 8 -4 12z" />
<glyph unicode="&#x148;" d="M152 20v986q0 20 20 20h21q20 0 20 -20v-99q0 -6 4 -6t6 6q33 63 91.5 98t131.5 35q121 0 188.5 -81.5t67.5 -227.5v-711q0 -20 -20 -20h-20q-20 0 -21 20v703q0 123 -54.5 191.5t-154.5 68.5t-159.5 -73.5t-59.5 -202.5v-687q0 -20 -20 -20h-21q-20 0 -20 20zM250 1421 q0 12 16 13h31q14 0 24 -15l105 -168q2 -2 6 -2t6 2l104 168q10 14 25 15h29q12 0 16 -7.5t-2 -17.5l-137 -207q-8 -12 -25 -12h-37q-14 0 -24 14l-133 205q-4 8 -4 12z" />
<glyph unicode="&#x158;" horiz-adv-x="874" d="M180 20v1393q0 20 21 21h291q137 0 220 -102.5t83 -270.5q0 -143 -63.5 -240.5t-172.5 -122.5q-8 -4 -6 -10l244 -665l2 -9q0 -14 -19 -14h-18q-19 0 -25 16l-243 670q-2 6 -9 6h-235q-8 0 -8 -8v-664q0 -20 -21 -20h-20q-20 0 -21 20zM242 756q0 -8 8 -8h239 q111 0 177.5 86t66.5 227t-66.5 228t-177.5 87h-239q-8 0 -8 -8v-612zM273 1829q0 12 16 13h31q14 0 24 -15l105 -168q2 -2 6 -2t6 2l104 168q10 14 25 15h29q12 0 16 -7.5t-2 -17.5l-137 -207q-8 -12 -25 -12h-37q-14 0 -24 14l-133 205q-4 8 -4 12z" />
<glyph unicode="&#x159;" horiz-adv-x="561" d="M152 20v986q0 20 20 20h21q20 0 20 -20v-134q0 -6 4 -6t6 8q31 76 83 118t124 42q51 0 88 -20q14 -8 8 -27l-8 -24q-6 -20 -26 -11q-33 14 -72 15q-90 -2 -148.5 -89t-58.5 -219v-639q0 -20 -20 -20h-21q-20 0 -20 20zM166 1421q0 12 16 13h31q14 0 24 -15l105 -168 q2 -2 6 -2t6 2l104 168q10 14 25 15h29q12 0 16 -7.5t-2 -17.5l-137 -207q-8 -12 -25 -12h-37q-14 0 -24 14l-133 205q-4 8 -4 12z" />
<glyph unicode="&#x160;" horiz-adv-x="819" d="M98 1124q0 152 83 239t214 87q139 0 224.5 -98.5t85.5 -257.5v-52q0 -20 -21 -20h-20q-20 0 -21 20v50q0 137 -68.5 220t-179.5 83q-104 0 -169.5 -72t-65.5 -203q0 -76 26.5 -132t78.5 -104t153 -124q121 -90 179 -144.5t89 -118t31 -155.5q0 -162 -86 -260t-223 -98 q-138 0 -223 97t-85 257v39q0 20 21 20h18q20 0 21 -20v-37q0 -135 68.5 -218t177.5 -83t179 80t70 209q0 86 -32.5 146.5t-80.5 103.5t-157 124q-104 80 -160.5 132.5t-91.5 123t-35 166.5zM215 1829q0 12 16 13h31q14 0 24 -15l105 -168q2 -2 6 -2t6 2l104 168 q10 14 25 15h29q12 0 16 -7.5t-2 -17.5l-137 -207q-8 -12 -25 -12h-37q-14 0 -24 14l-133 205q-4 8 -4 12z" />
<glyph unicode="&#x161;" horiz-adv-x="720" d="M106 240v10q0 20 21 20h18q20 0 21 -20v-8q0 -84 58.5 -140.5t156.5 -56.5q92 0 148.5 57.5t56.5 151.5q0 68 -31 111t-75 68.5t-122 58.5q-82 35 -131 63.5t-82.5 81.5t-33.5 135q0 119 72.5 190.5t193.5 71.5q119 0 191.5 -72.5t72.5 -187.5v-6q0 -20 -20 -20h-17 q-20 0 -20 20v6q0 88 -58.5 146.5t-150.5 58.5t-147.5 -57.5t-55.5 -149.5q0 -61 27.5 -103t69.5 -66.5t114 -55.5q88 -37 139 -66.5t88 -85t37 -141.5q0 -119 -73.5 -190.5t-194.5 -71.5t-197 70.5t-76 177.5zM195 1421q0 12 16 13h31q14 0 24 -15l105 -168q2 -2 6 -2t6 2 l104 168q10 14 25 15h29q12 0 16 -7.5t-2 -17.5l-137 -207q-8 -12 -25 -12h-37q-14 0 -24 14l-133 205q-4 8 -4 12z" />
<glyph unicode="&#x164;" horiz-adv-x="811" d="M80 1397v16q0 20 20 21h611q20 -1 20 -21v-16q0 -20 -20 -21h-275q-8 0 -8 -8v-1348q0 -20 -20 -20h-21q-20 0 -20 20v1348q0 8 -9 8h-258q-20 0 -20 21zM219 1822q0 12 16 13h31q14 0 24 -15l105 -168q2 -2 6 -2t6 2l104 168q10 14 25 15h29q12 0 16 -7.5t-2 -17.5 l-137 -207q-8 -12 -25 -12h-37q-14 0 -24 14l-133 205q-4 8 -4 12z" />
<glyph unicode="&#x165;" horiz-adv-x="518" d="M70 993v13q0 20 20 20h84q8 0 8 8v230q0 20 21 20h22q20 0 21 -20v-230q0 -8 8 -8h174q20 0 21 -20v-13q-1 -20 -21 -20h-174q-8 0 -8 -8v-707q0 -113 38 -157t119 -44h23q20 0 20 -20v-17q0 -20 -20 -20h-31q-104 0 -158.5 54.5t-54.5 199.5v711q0 8 -8 8h-84 q-20 0 -20 20zM291 1172.5q-4 7.5 2 17.5l127 229q6 14 25 15h18q12 0 16.5 -7.5t-1.5 -17.5l-133 -229q-10 -14 -25 -15h-12q-13 0 -17 7.5z" />
<glyph unicode="&#x16e;" horiz-adv-x="970" d="M166 362v1051q0 20 20 21h21q20 0 20 -21v-1059q0 -141 71 -227t185 -86q117 0 188.5 86t71.5 227v1059q0 20 21 21h20q20 0 21 -21v-1051q0 -170 -88 -274t-234 -104q-143 0 -230 104.5t-87 273.5zM287 1815q0 84 57.5 143.5t138.5 59.5q82 0 139.5 -59.5t57.5 -143.5 t-57.5 -143.5t-139.5 -59.5q-81 0 -138.5 59.5t-57.5 143.5zM336 1815q0 -63 43 -107.5t104 -44.5q60 0 103 44t43 108q0 63 -43 107.5t-103 44.5q-61 0 -104 -44.5t-43 -107.5z" />
<glyph unicode="&#x16f;" d="M139 283v723q0 20 21 20h20q20 0 21 -20v-709q0 -127 54 -190.5t155 -63.5q100 0 158.5 73.5t58.5 202.5v687q0 20 20 20h21q20 0 20 -20v-986q0 -20 -20 -20h-21q-20 0 -20 20v82q0 6 -4.5 7.5t-6.5 -5.5q-63 -119 -215 -118q-123 0 -192.5 74.5t-69.5 222.5zM215 1407 q0 84 57.5 143.5t138.5 59.5q82 0 139.5 -59.5t57.5 -143.5t-57.5 -143.5t-139.5 -59.5q-81 0 -138.5 59.5t-57.5 143.5zM264 1407q0 -63 43 -107.5t104 -44.5q60 0 103 44t43 108q0 63 -43 107.5t-103 44.5q-61 0 -104 -44.5t-43 -107.5z" />
<glyph unicode="&#x17d;" horiz-adv-x="788" d="M84 20v25q0 14 4 25l533 1296q2 4 -0.5 7t-6.5 3h-510q-20 0 -20 21v16q0 20 20 21h568q20 0 20 -21v-24q0 -14 -4 -25l-532 -1296q-2 -4 0 -7.5t6 -3.5h510q20 0 20 -20v-17q0 -20 -20 -20h-568q-20 0 -20 20zM213 1829q0 12 16 13h31q14 0 24 -15l105 -168q2 -2 6 -2 t6 2l104 168q10 14 25 15h29q12 0 16 -7.5t-2 -17.5l-137 -207q-8 -12 -25 -12h-37q-14 0 -24 14l-133 205q-4 8 -4 12z" />
<glyph unicode="&#x17e;" horiz-adv-x="722" d="M86 20v23q0 12 6 27l475 888q4 10 -4 11h-450q-20 0 -21 20v17q0 20 21 20h512q20 0 20 -20v-23q0 -10 -6 -27l-477 -888q-4 -10 4 -11h455q20 0 20 -20v-17q0 -20 -20 -20h-515q-20 0 -20 20zM191 1421q0 12 16 13h31q14 0 24 -15l105 -168q2 -2 6 -2t6 2l104 168 q10 14 25 15h29q12 0 16 -7.5t-2 -17.5l-137 -207q-8 -12 -25 -12h-37q-14 0 -24 14l-133 205q-4 8 -4 12z" />
<glyph unicode="&#x2c6;" horiz-adv-x="389" d="M69 1197q-3 7 3 17l133 205q10 14 25 15h37q14 0 24 -13l137 -207l4 -10q0 -14 -18 -14h-29q-14 0 -24 14l-105 166q-2 4 -6 4t-6 -4l-104 -166q-10 -14 -25 -14h-31q-12 0 -15 7z" />
<glyph unicode="&#x2da;" horiz-adv-x="503" d="M55 1407q0 84 57.5 143.5t138.5 59.5q82 0 139.5 -59.5t57.5 -143.5t-57.5 -143.5t-139.5 -59.5q-81 0 -138.5 59.5t-57.5 143.5zM104 1407q0 -63 43 -107.5t104 -44.5q60 0 103 44t43 108q0 63 -43 107.5t-103 44.5q-61 0 -104 -44.5t-43 -107.5z" />
<glyph unicode="&#x2dc;" horiz-adv-x="618" d="M67 1335q53 84 138 84q31 0 54 -12t58 -35q37 -25 55.5 -35t40.5 -10q29 0 51.5 13.5t45.5 50.5q4 8 12 10t16 -2l7 -4q10 -6 10 -19q0 -12 -8 -22q-29 -43 -66 -62.5t-72 -19.5q-30 0 -54.5 13t-53.5 36q-4 4 -23.5 18.5t-36 20.5t-34.5 6q-33 0 -55.5 -11.5 t-45.5 -45.5q-12 -18 -28 -6l-7 4q-16 10 -4 28z" />
<glyph unicode="&#x2000;" horiz-adv-x="1009" />
<glyph unicode="&#x2001;" horiz-adv-x="2018" />
<glyph unicode="&#x2002;" horiz-adv-x="1009" />
<glyph unicode="&#x2003;" horiz-adv-x="2018" />
<glyph unicode="&#x2004;" horiz-adv-x="672" />
<glyph unicode="&#x2005;" horiz-adv-x="504" />
<glyph unicode="&#x2006;" horiz-adv-x="336" />
<glyph unicode="&#x2007;" horiz-adv-x="336" />
<glyph unicode="&#x2008;" horiz-adv-x="252" />
<glyph unicode="&#x2009;" horiz-adv-x="403" />
<glyph unicode="&#x200a;" horiz-adv-x="112" />
<glyph unicode="&#x2010;" horiz-adv-x="620" d="M76 647v17q0 20 20 20h428q20 0 21 -20v-17q0 -20 -21 -20h-428q-20 0 -20 20z" />
<glyph unicode="&#x2011;" horiz-adv-x="620" d="M76 647v17q0 20 20 20h428q20 0 21 -20v-17q0 -20 -21 -20h-428q-20 0 -20 20z" />
<glyph unicode="&#x2012;" horiz-adv-x="620" d="M76 647v17q0 20 20 20h428q20 0 21 -20v-17q0 -20 -21 -20h-428q-20 0 -20 20z" />
<glyph unicode="&#x2013;" horiz-adv-x="751" d="M76 569v17q0 20 20 20h559q20 0 21 -20v-17q0 -20 -21 -20h-559q-20 0 -20 20z" />
<glyph unicode="&#x2014;" horiz-adv-x="1212" d="M76 569v17q0 20 20 20h1020q20 0 21 -20v-17q0 -20 -21 -20h-1020q-20 0 -20 20z" />
<glyph unicode="&#x2018;" horiz-adv-x="174" d="M8 1063l109 354q6 16 24 17h9q10 0 15 -6.5t3 -16.5l-96 -352q-4 -18 -23 -19h-24q-23 0 -17 23z" />
<glyph unicode="&#x2019;" horiz-adv-x="174" d="M6 1063l98 354q4 16 23 17h23q22 0 16 -23l-109 -354q-6 -16 -24 -17h-8q-10 0 -15.5 6.5t-3.5 16.5z" />
<glyph unicode="&#x201a;" horiz-adv-x="1228" d="M88 -117l76 412q4 18 22 18h17q10 0 15 -6t3 -16l-82 -412q-2 -18 -22 -18h-11q-10 0 -15 6t-3 16z" />
<glyph unicode="&#x201c;" horiz-adv-x="391" d="M8 1063l125 354q6 16 25 17h10q23 0 16 -23l-110 -354q-6 -16 -25 -17h-24q-23 0 -17 23zM207 1063l125 354q6 16 24 17h11q23 0 16 -23l-109 -354q-6 -16 -24 -17h-27q-22 0 -16 23z" />
<glyph unicode="&#x201d;" horiz-adv-x="391" d="M8 1063l109 354q6 16 24 17h27q22 0 16 -23l-125 -354q-6 -16 -24 -17h-10q-23 0 -17 23zM207 1063l110 354q6 16 25 17h25q22 0 16 -23l-125 -354q-6 -16 -25 -17h-10q-23 0 -16 23z" />
<glyph unicode="&#x201e;" horiz-adv-x="354" d="M8 -111l109 354q6 16 24 17h27q22 0 16 -23l-125 -354q-6 -16 -24 -17h-10q-23 0 -17 23zM207 -111l110 354q6 16 25 17h25q22 0 16 -23l-125 -354q-6 -16 -25 -17h-10q-23 0 -16 23z" />
<glyph unicode="&#x2022;" horiz-adv-x="589" d="M76 537q0 90 65.5 153.5t155.5 63.5t153.5 -63.5t63.5 -153.5t-64.5 -156t-152.5 -66q-90 0 -155.5 65.5t-65.5 156.5z" />
<glyph unicode="&#x2026;" horiz-adv-x="1179" d="M86 98q0 37 24.5 62t63.5 25t63.5 -25t24.5 -62q0 -39 -24.5 -63.5t-63.5 -24.5t-63.5 25t-24.5 63zM502 98q0 37 24.5 62t63.5 25t63.5 -25t24.5 -62q0 -39 -24.5 -63.5t-63.5 -24.5t-63.5 25t-24.5 63zM917 98q0 37 24.5 62t63.5 25t63.5 -25t24.5 -62 q0 -39 -24.5 -63.5t-63.5 -24.5t-63.5 25t-24.5 63z" />
<glyph unicode="&#x202f;" horiz-adv-x="403" />
<glyph unicode="&#x2039;" horiz-adv-x="653" d="M145.5 575.5q-0.5 8.5 4.5 14.5l251 330q8 12 27 12h14q12 0 16.5 -7t-3.5 -18l-250 -325q-2 -6 0 -13l250 -325q4 -5 4 -13q0 -4 -4 -8t-13 -4h-14q-18 0 -27 12l-251 330q-4 6 -4.5 14.5z" />
<glyph unicode="&#x203a;" horiz-adv-x="694" d="M194.5 226q-4.5 7 4.5 18l250 325q4 6 0 13l-250 325q-4 4 -4 13q0 4 4 8t12 4h14q18 0 27 -12l252 -330q4 -6 4 -14.5t-4 -14.5l-252 -330q-8 -12 -27 -12h-14q-12 0 -16.5 7z" />
<glyph unicode="&#x205f;" horiz-adv-x="504" />
<glyph unicode="&#x20ac;" horiz-adv-x="978" d="M139 590v10q0 20 21 21h114q8 0 9 8v168q0 8 -9 8h-114q-20 0 -21 20v11q0 20 21 20h114q8 0 9 8v262q0 147 77.5 235.5t206.5 88.5q121 0 198 -76t87 -207v-6q0 -14 -16 -18l-25 -4h-4q-16 0 -16 20q-8 106 -68.5 170t-155.5 64q-100 0 -161.5 -72t-61.5 -191v-266 q0 -8 8 -8h381q10 0 14.5 -7t0.5 -18l-7 -12q-6 -14 -22 -14h-367q-8 0 -8 -8v-168q0 -8 8 -8h318q10 0 14 -7.5t0 -17.5l-6 -12q-6 -14 -25 -15h-301q-8 0 -8 -8v-256q0 -119 61.5 -191.5t161.5 -72.5q95 0 155 63.5t69 169.5q0 10 6 16.5t14 4.5l23 -4q20 -4 18 -23 q-10 -131 -87 -207.5t-198 -76.5q-127 0 -205.5 89t-78.5 236v252q0 8 -9 8h-114q-20 0 -21 21z" />
<glyph unicode="&#x2122;" horiz-adv-x="1021" d="M39 1407v6q0 20 20 21h338q20 0 21 -21v-6q0 -20 -21 -21h-139q-8 0 -8 -8v-643q0 -20 -21 -20h-12q-20 0 -20 20v643q0 8 -9 8h-129q-20 1 -20 21zM541 735v678q0 20 20 21h17q18 0 24 -15l127 -270q2 -4 6 -4t6 4l129 270q7 15 25 15h16q20 0 21 -21v-678 q0 -20 -21 -20h-12q-20 0 -20 20v572q0 6 -3.5 6t-7.5 -4l-112 -240q-6 -14 -17 -14q-14 0 -20 14l-113 240q-4 4 -7 4t-3 -6v-572q0 -20 -21 -20h-14q-20 0 -20 20z" />
<glyph unicode="&#x25fc;" horiz-adv-x="1024" d="M0 0v1024h1024v-1024h-1024z" />
</font>
</defs>
</svg>
