<svg xmlns="http://www.w3.org/2000/svg" width="264" height="62" viewBox="0 0 264 62"><defs><style>.a{fill:#2274b3;}.b{fill:#93ca27;}</style></defs><title>spoketa-logo</title><path class="a" d="M73.37,45.206a14.5,14.5,0,0,1-4.8-2.256l2.12-4.7a14.39,14.39,0,0,0,4.125,2.043,15.486,15.486,0,0,0,4.779.771,7.646,7.646,0,0,0,3.932-.79,2.389,2.389,0,0,0,1.272-2.1,2.007,2.007,0,0,0-.752-1.6,5.712,5.712,0,0,0-1.927-1.022q-1.176-.384-3.18-.848a43.8,43.8,0,0,1-5.05-1.464,8.2,8.2,0,0,1-3.372-2.351,6.347,6.347,0,0,1-1.407-4.317,7.513,7.513,0,0,1,1.272-4.26,8.56,8.56,0,0,1,3.835-3.026,15.673,15.673,0,0,1,6.264-1.118,20.745,20.745,0,0,1,5.049.617,14.9,14.9,0,0,1,4.317,1.773L87.921,25.3a15.049,15.049,0,0,0-7.478-2.12,7.022,7.022,0,0,0-3.874.848,2.59,2.59,0,0,0-1.252,2.236,2.184,2.184,0,0,0,1.445,2.062,22.606,22.606,0,0,0,4.413,1.33,44.182,44.182,0,0,1,5.05,1.465A8.362,8.362,0,0,1,89.6,33.429a6.2,6.2,0,0,1,1.407,4.279,7.368,7.368,0,0,1-1.292,4.221,8.677,8.677,0,0,1-3.873,3.026,15.8,15.8,0,0,1-6.283,1.118A22.077,22.077,0,0,1,73.37,45.206Z"/><path class="a" d="M114.155,19.822a9.255,9.255,0,0,1,4.067,3.393,9.351,9.351,0,0,1,1.426,5.2,9.372,9.372,0,0,1-1.426,5.184,9.086,9.086,0,0,1-4.067,3.392,15.2,15.2,0,0,1-6.225,1.176H102.5V45.61H96.251V18.628H107.93A15,15,0,0,1,114.155,19.822Zm-2.293,12.046a4.229,4.229,0,0,0,1.465-3.449,4.278,4.278,0,0,0-1.465-3.489,6.563,6.563,0,0,0-4.279-1.214H102.5v9.367h5.088A6.557,6.557,0,0,0,111.862,31.868Z"/><path class="a" d="M130.58,44.261A13.443,13.443,0,0,1,125.3,39.27a13.632,13.632,0,0,1-1.908-7.151,13.626,13.626,0,0,1,1.908-7.15,13.439,13.439,0,0,1,5.281-4.992,16.7,16.7,0,0,1,15.129,0,13.761,13.761,0,0,1,0,24.284,16.7,16.7,0,0,1-15.129,0Zm11.891-4.606A7.883,7.883,0,0,0,145.5,36.59a9.644,9.644,0,0,0,0-8.942,7.883,7.883,0,0,0-3.026-3.065,9.036,9.036,0,0,0-8.634,0,7.876,7.876,0,0,0-3.026,3.065,9.652,9.652,0,0,0,0,8.942,7.876,7.876,0,0,0,3.026,3.065,9.028,9.028,0,0,0,8.634,0Z"/><path class="a" d="M168.127,35.01,164.5,38.787V45.61h-6.2V18.628h6.2v12.6l11.95-12.6h6.938L172.213,30.654,184.047,45.61h-7.286Z"/><path class="a" d="M208.6,40.6V45.61H187.7V18.628H208.1v5.011H193.91V29.5h12.528v4.857H193.91V40.6Z"/><path class="a" d="M220.222,23.716h-8.635V18.628H235.1v5.088h-8.634V45.61h-6.244Z"/><path class="a" d="M254.131,39.828H241.6l-2.39,5.782h-6.4l12.027-26.982h6.168L263.073,45.61h-6.552Zm-1.966-4.741-4.279-10.33-4.279,10.33Z"/><path class="a" d="M53.739,35.377l-5.457,1.181A24.752,24.752,0,0,1,33.12,35.072a21.923,21.923,0,0,0-13.427-1.316l-5.856,1.267L.927,57.385,8.88,55.663A41.427,41.427,0,0,1,34.252,58.15a38.588,38.588,0,0,0,23.637,2.317l9.187-1.989Z"/><path class="b" d="M33.686.645,15.76,31.693l3.33-.721h0a25.035,25.035,0,0,1,5.3-.569,24.785,24.785,0,0,1,9.867,2.055,21.921,21.921,0,0,0,13.427,1.317l4.564-.989Z"/></svg>