<svg xmlns="http://www.w3.org/2000/svg" viewBox="0 0 24 24"><defs><style>.cls-1{opacity:0.6;}.cls-2{fill:#fff;}</style></defs><title>pen</title><g id="Слой_2" data-name="Слой 2"><g id="Vrstva_1" data-name="Vrstva 1"><g class="cls-1"><path class="cls-2" d="M23.12,2.64,21.36.88a3,3,0,0,0-4.24,0L.6,17.4,0,22.75A1.12,1.12,0,0,0,1.25,24L6.6,23.4,23.12,6.88a3,3,0,0,0,0-4.24ZM18.66,9.22,8.16,19.72V18.09H5.91V15.84H4.28l10.5-10.5,3.88,3.88ZM5.91,22l-2.76.3L1.73,20.85,2,18.09,3,17.16H4.59v2.25H6.84V21ZM22.06,5.82,19.72,8.16,15.84,4.28l2.34-2.34a1.49,1.49,0,0,1,2.12,0L22.06,3.7a1.49,1.49,0,0,1,0,2.12Z"/></g></g></g></svg>