<svg xmlns="http://www.w3.org/2000/svg" viewBox="0 0 18.63 18.63"><defs><style>.cls-1{fill:#3c3c3c;opacity:0.7;}</style></defs><title>phone</title><g id="Слой_2" data-name="Слой 2"><g id="Vrstva_1" data-name="Vrstva 1"><path class="cls-1" d="M18.63,2A16.64,16.64,0,0,1,2,18.63a1.13,1.13,0,0,1-1.11-.88L0,14.08a1.14,1.14,0,0,1,.66-1.3l3.94-1.69A1.16,1.16,0,0,1,6,11.41l1.6,2a12.72,12.72,0,0,0,5.81-5.81L11.41,6a1.13,1.13,0,0,1-.32-1.32L12.78.69A1.14,1.14,0,0,1,14.08,0l3.67.85A1.11,1.11,0,0,1,18.63,2ZM17.46,2l-3.62-.84L12.16,5.08l2.65,2.16a14.06,14.06,0,0,1-7.57,7.58L5.08,12.17,1.17,13.84,2,17.47A15.48,15.48,0,0,0,17.46,2Z"/></g></g></svg>