<svg xmlns="http://www.w3.org/2000/svg" width="67" height="14" viewBox="0 0 67 14"><defs><style>.a{opacity:0.92;}.b{fill:#3c3c3c;}</style></defs><title>hardart</title><g class="a"><path class="b" d="M9.781,7.6v5.855H6.432V7.986c0-1.121-.394-1.693-1.268-1.693-1.013,0-1.645.72-1.645,1.967v5.192H.17V.219H3.519v4.15a4.151,4.151,0,0,1,2.6-.927C8.347,3.442,9.781,5.077,9.781,7.6Z"/><path class="b" d="M21.485,3.719v9.723H18.9l-.287-.687a4.6,4.6,0,0,1-2.933,1.016,4.958,4.958,0,0,1-5.1-5.19,4.935,4.935,0,0,1,5.1-5.155,4.613,4.613,0,0,1,2.97,1.045l.343-.752ZM18.3,8.588a2.177,2.177,0,1,0-4.353,0,2.177,2.177,0,1,0,4.353,0Z"/><path class="b" d="M29.409,3.683V6.748h-1.3c-1.186,0-1.682.52-1.682,1.76v4.944H23.078V3.73h2.243l.523,1.079a3.245,3.245,0,0,1,2.678-1.126Z"/><path class="b" d="M40.644.219V13.452H38.166l-.316-.722a4.5,4.5,0,0,1-2.932,1.051,4.959,4.959,0,0,1-5.109-5.19,4.951,4.951,0,0,1,5.109-5.18,4.535,4.535,0,0,1,2.415.675V.219Zm-3.1,8.372a2.177,2.177,0,1,0-4.353,0,2.177,2.177,0,1,0,4.353,0Z"/><path class="b" d="M52.349,3.719v9.723H49.76l-.287-.687a4.6,4.6,0,0,1-2.934,1.016,4.957,4.957,0,0,1-5.1-5.19,4.934,4.934,0,0,1,5.1-5.155A4.616,4.616,0,0,1,49.51,4.471l.342-.752ZM49.163,8.588a2.177,2.177,0,1,0-4.353,0,2.177,2.177,0,1,0,4.353,0Z"/><path class="b" d="M65.545,10.519A1.031,1.031,0,0,1,64.418,9.4V6.748h2.358V3.73H64.333V.935l-.688,0L61.069,3.683V9.977a3.2,3.2,0,0,0,3.457,3.475h2.3V10.519Z"/><path class="b" d="M60.273,3.683V6.748h-1.3c-1.185,0-1.682.52-1.682,1.76v4.944H53.941V3.73h2.244l.522,1.079a3.245,3.245,0,0,1,2.678-1.126Z"/></g></svg>