<svg xmlns="http://www.w3.org/2000/svg" viewBox="0 0 18.63 13.97"><defs><style>.cls-1{fill:#3c3c3c;opacity:0.7;}</style></defs><title>letter</title><g id="Слой_2" data-name="Слой 2"><g id="Vrstva_1" data-name="Vrstva 1"><path class="cls-1" d="M18.63,1.75V12.23A1.74,1.74,0,0,1,16.88,14H1.75A1.74,1.74,0,0,1,0,12.23V1.75A1.75,1.75,0,0,1,1.75,0H16.88A1.75,1.75,0,0,1,18.63,1.75Zm-17.47,0v1.5c.8.68,1.94,1.6,5.48,4.42.62.48,1.83,1.66,2.67,1.64S11.37,8.15,12,7.67c3.54-2.82,4.68-3.74,5.47-4.42V1.75a.59.59,0,0,0-.58-.59H1.75A.6.6,0,0,0,1.16,1.75Zm16.3,10.48V4.77c-.82.68-2.13,1.73-4.75,3.81-.76.61-2.07,1.91-3.4,1.9S6.67,9.17,5.92,8.58C3.3,6.5,2,5.45,1.16,4.77v7.46a.59.59,0,0,0,.59.58H16.88A.58.58,0,0,0,17.46,12.23Z"/></g></g></svg>