<?xml version="1.0" standalone="no"?>
<!DOCTYPE svg PUBLIC "-//W3C//DTD SVG 20010904//EN"
 "http://www.w3.org/TR/2001/REC-SVG-20010904/DTD/svg10.dtd">
<svg version="1.0" xmlns="http://www.w3.org/2000/svg"
 width="700.000000pt" height="700.000000pt" viewBox="0 0 700.000000 700.000000"
 preserveAspectRatio="xMidYMid meet">
<metadata>
Created by potrace 1.11, written by Peter Selinger 2001-2013
</metadata>
<g transform="translate(0.000000,700.000000) scale(0.100000,-0.100000)"
fill="#000000" stroke="none">
<path d="M3444 6672 c-12 -20 -172 -296 -354 -612 -183 -316 -346 -600 -363
-630 -17 -30 -34 -56 -39 -58 -4 -2 -8 -8 -8 -13 0 -5 -49 -94 -109 -197 -101
-175 -211 -365 -486 -842 -153 -266 -203 -352 -215 -370 -6 -8 -13 -22 -17
-30 -4 -8 -33 -59 -65 -113 -32 -54 -58 -100 -58 -103 0 -2 -16 -28 -35 -58
-19 -30 -35 -57 -35 -60 0 -3 -20 -40 -45 -82 l-46 -77 33 7 c18 4 44 10 58
12 14 3 84 18 155 34 286 62 458 83 680 82 139 -1 212 -6 380 -28 140 -19 372
-80 522 -137 48 -19 147 -57 218 -85 119 -46 309 -102 395 -116 19 -3 58 -10
85 -15 87 -16 216 -25 360 -25 187 1 306 12 455 44 25 5 61 12 80 15 19 3 51
10 70 15 44 12 169 39 195 43 61 10 174 40 171 45 -12 21 -232 404 -251 437
-13 22 -68 118 -124 214 -56 95 -101 175 -101 177 0 1 -31 55 -70 120 -38 64
-70 118 -70 120 0 1 -27 48 -60 104 -33 56 -60 103 -60 106 0 2 -16 28 -35 58
-19 30 -35 57 -35 60 0 2 -34 62 -75 131 -41 70 -75 128 -75 130 0 2 -27 49
-60 104 -33 56 -60 106 -60 111 0 6 -4 10 -10 10 -5 0 -10 4 -10 10 0 5 -22
47 -49 92 -27 46 -57 99 -68 118 -11 19 -62 107 -113 195 -51 88 -101 176
-112 195 -22 38 -208 360 -400 693 -66 114 -121 207 -121 207 -1 0 -12 -17
-23 -38z"/>
<path d="M2438 3266 c-1 -2 -48 -6 -103 -10 -166 -11 -194 -15 -510 -82 -115
-25 -244 -52 -285 -61 -41 -8 -98 -22 -126 -29 l-51 -14 -145 -252 c-80 -139
-246 -426 -368 -638 -325 -562 -480 -830 -502 -869 -120 -210 -297 -515 -319
-551 -15 -24 -27 -46 -25 -47 1 -1 56 9 122 23 65 14 128 27 139 30 11 2 31 6
45 9 14 3 34 7 45 9 11 3 106 23 210 46 105 23 197 44 206 45 9 2 59 12 110
24 52 11 114 23 139 27 48 7 61 9 125 18 22 4 54 9 70 11 29 5 48 7 245 24 98
9 620 7 700 -3 25 -3 65 -8 90 -10 40 -5 80 -10 225 -31 22 -3 85 -15 140 -26
94 -18 115 -22 165 -33 183 -41 551 -162 710 -233 210 -95 632 -234 781 -257
20 -3 42 -8 50 -10 17 -6 222 -42 294 -52 28 -3 58 -8 68 -10 102 -19 675 -27
827 -11 173 18 309 37 430 62 14 3 48 9 75 15 28 5 59 11 70 14 11 2 103 22
205 45 345 75 655 143 680 147 13 3 25 6 26 7 2 1 -40 76 -93 167 -52 91 -105
183 -118 205 -12 22 -123 213 -245 425 -123 212 -233 401 -244 422 -12 20 -36
62 -55 95 -19 32 -42 73 -52 90 -10 18 -69 119 -130 225 -61 106 -121 209
-132 228 -33 59 -243 423 -266 460 -11 19 -32 56 -45 81 l-25 45 -83 -17 c-71
-15 -339 -72 -389 -84 -107 -24 -213 -45 -249 -50 -25 -3 -56 -7 -70 -10 -164
-26 -564 -26 -701 0 -13 3 -41 7 -64 11 -182 26 -419 96 -655 194 -176 73
-396 135 -555 156 -27 3 -59 8 -70 10 -11 3 -81 7 -155 10 -74 3 -140 7 -147
9 -6 2 -13 2 -15 1z"/>
</g>
</svg>
